<?xml version="1.0" encoding="utf-8"?>
<!-- Generator: Adobe Illustrator 17.0.0, SVG Export Plug-In . SVG Version: 6.00 Build 0)  -->
<!DOCTYPE svg PUBLIC "-//W3C//DTD SVG 1.1//EN" "http://www.w3.org/Graphics/SVG/1.1/DTD/svg11.dtd">
<svg version="1.1" id="Layer_1" xmlns="http://www.w3.org/2000/svg" xmlns:xlink="http://www.w3.org/1999/xlink" x="0px" y="0px"
	 width="100px" height="100px" viewBox="0 0 100 100" enable-background="new 0 0 100 100" xml:space="preserve">
<g opacity="0.96">
	<path fill="#FFFFFF" d="M42.406,64.45c0.442-0.443,0.813-0.499,1.294-0.321c0.219,0.081,0.615,0.027,0.775-0.127
		c1.648-1.589,3.252-3.225,4.895-4.82c0.84-0.815,0.798-1.839,0.801-2.867c0.001-0.257-0.028-0.514-0.031-0.772
		c-0.01-1.196-0.021-1.165-1.169-1.626c-1.105-0.443-2.191-0.939-3.265-1.452c-0.417-0.199-0.807-0.478-1.163-0.777
		c-0.484-0.406-1.016-0.867-0.765-1.588c0.301-0.867,0.66-1.744,1.803-1.801c0.63-0.031,1.26-0.099,1.89-0.095
		c0.437,0.003,0.637-0.109,0.634-0.588c-0.014-2.435,0.055-4.873-0.041-7.304c-0.026-0.66-0.39-1.418-0.833-1.928
		c-1.024-1.18-2.176-2.252-3.307-3.335c-0.401-0.384-0.604-0.774-0.58-1.343c0.043-1.005,0.016-2.013,0.008-3.02
		c-0.002-0.22-0.046-0.44-0.083-0.766c-1.292,0.693-2.453,1.393-3.679,1.948c-0.958,0.433-1.554,1.094-2.002,2.02
		c-0.63,1.305-1.345,2.571-2.075,3.825c-0.165,0.284-0.506,0.53-0.821,0.65c-0.838,0.318-1.101,0.575-1.091,1.49
		c0.022,2.038-0.317,1.497,1.545,2.06c0.562,0.17,1.115,0.459,1.592,0.804c0.641,0.465,1.203,1.037,1.797,1.565
		c0.033,0.029,0.045,0.08,0.115,0.21c-0.74,0.874-1.502,1.779-2.27,2.679c-0.395,0.463-0.82,0.9-1.2,1.375
		c-0.627,0.784-0.586,1.605,0.122,2.33c0.686,0.702,1.386,1.395,2.115,2.052c0.183,0.165,0.499,0.242,0.758,0.251
		c0.878,0.03,1.759,0.011,2.638,0.011c0.072,0.103,0.143,0.205,0.215,0.308c-1.301,1.24-2.602,2.48-3.835,3.656
		c-1.612-1.555-3.087-3.055-4.651-4.457c-0.908-0.814-1.242-1.729-1.099-2.906c0.067-0.554,0.007-1.123,0.01-1.685
		c0.003-0.493-0.2-0.845-0.721-0.845c-0.483,0-0.698,0.341-0.702,0.796c-0.011,1.217-0.03,2.436,0.01,3.652
		c0.009,0.264,0.183,0.61,0.394,0.764c1.385,1.016,1.793,2.36,1.624,4.028c-0.12,1.182-0.005,2.386-0.034,3.58
		c-0.007,0.28-0.09,0.63-0.271,0.821c-1.365,1.445-2.763,2.858-4.153,4.279c-0.059,0.06-0.15,0.089-0.351,0.204
		c0-0.595,0-1.096,0-1.596c0.003-5.105,0.006-10.209,0.009-15.314c0-0.14,0.003-0.281-0.004-0.421
		c-0.026-0.527-0.289-0.843-0.83-0.836c-0.513,0.007-0.76,0.329-0.773,0.817c-0.018,0.702-0.01,1.405-0.01,2.107
		c0,1.452-0.021,2.904,0.013,4.355c0.013,0.537-0.174,0.726-0.686,0.669c-0.208-0.023-0.422-0.017-0.632-0.001
		c-0.75,0.058-1.358,0.048-1.699-0.886c-0.177-0.483-0.848-0.829-1.359-1.13c-0.332-0.196-0.462-0.367-0.459-0.748
		c0.016-2.084,0.021-4.168-0.007-6.252c-0.007-0.525,0.155-0.683,0.678-0.68c2.973,0.02,5.946-0.009,8.919,0.018
		c0.639,0.006,0.859-0.183,0.847-0.829c-0.033-1.756-0.031-3.513,0.013-5.268c0.009-0.351,0.182-0.776,0.423-1.029
		c1.402-1.474,2.859-2.897,4.266-4.367c0.213-0.222,0.36-0.599,0.369-0.909c0.038-1.427,0.029-2.856,0.009-4.285
		c-0.006-0.449,0.136-0.627,0.602-0.62c2.364,0.035,4.728,0.056,7.092,0.057c0.464,0,0.546,0.217,0.544,0.604
		c-0.009,1.499-0.032,2.998,0.018,4.495c0.013,0.377,0.188,0.829,0.443,1.103c0.972,1.043,1.995,2.038,3.021,3.029
		c0.859,0.83,1.27,1.83,1.267,3.014c-0.005,2.342,0.006,4.683-0.02,7.025c-0.006,0.522,0.135,0.703,0.678,0.653
		c0.627-0.057,1.268-0.058,1.894,0.003c0.525,0.051,0.651-0.142,0.647-0.619c-0.02-2.271,0.007-4.543-0.035-6.813
		c-0.024-1.291,0.338-2.379,1.286-3.283c0.998-0.952,1.947-1.956,2.94-2.914c0.377-0.363,0.57-0.735,0.554-1.284
		c-0.041-1.451-0.004-2.903-0.021-4.355c-0.005-0.422,0.072-0.644,0.57-0.645c2.315-0.004,4.629-0.026,6.943-0.075
		c0.59-0.012,0.764,0.189,0.747,0.771c-0.04,1.38-0.04,2.764,0.004,4.144c0.01,0.331,0.174,0.731,0.402,0.97
		c1.387,1.455,2.83,2.856,4.211,4.316c0.257,0.271,0.438,0.726,0.447,1.101c0.045,1.755,0.036,3.512,0.005,5.268
		c-0.009,0.535,0.117,0.742,0.697,0.737c2.996-0.025,5.993,0.004,8.989-0.02c0.544-0.004,0.745,0.129,0.737,0.7
		c-0.029,2.037-0.02,4.074-0.005,6.111c0.003,0.449-0.164,0.656-0.556,0.915c-0.577,0.381-1.003,0.986-1.515,1.472
		c-0.21,0.199-0.461,0.435-0.724,0.48c-0.455,0.078-0.934-0.002-1.401,0.026c-0.495,0.03-0.65-0.179-0.646-0.659
		c0.018-1.99,0.009-3.981,0.007-5.971c0-0.234,0.068-0.53-0.047-0.687c-0.195-0.265-0.501-0.592-0.778-0.61
		c-0.231-0.015-0.551,0.337-0.713,0.6c-0.118,0.191-0.054,0.501-0.054,0.758c-0.002,5.292,0,10.584-0.002,15.876
		c0,0.266-0.025,0.532-0.048,1.004c-0.93-0.943-1.714-1.734-2.495-2.53c-0.492-0.501-0.946-1.045-1.476-1.5
		c-0.603-0.518-0.81-1.109-0.778-1.903c0.062-1.566,0.038-3.137,0.007-4.706c-0.01-0.511,0.097-0.923,0.512-1.226
		c1.218-0.89,1.725-2.051,1.497-3.568c-0.1-0.664-0.021-1.356-0.02-2.035c0-0.447-0.225-0.728-0.662-0.752
		c-0.48-0.026-0.748,0.273-0.758,0.736c-0.023,1.006,0.002,2.014-0.026,3.02c-0.007,0.263-0.05,0.608-0.217,0.772
		c-1.789,1.749-3.606,3.469-5.461,5.24c-1.101-1.162-2.34-2.469-3.633-3.833c0.722,0,1.481-0.038,2.234,0.011
		c0.665,0.044,1.151-0.161,1.586-0.67c0.454-0.531,0.995-0.989,1.495-1.481c0.991-0.973,0.993-1.71,0.076-2.794
		c-1.025-1.212-2.016-2.453-3.068-3.737c1.261-1.109,2.094-2.688,3.99-2.799c0.749-0.044,0.995-0.466,0.889-1.173
		c-0.038-0.252-0.022-0.515-0.013-0.772c0.026-0.78-0.387-1.178-1.096-1.42c-0.314-0.108-0.654-0.367-0.816-0.652
		c-0.866-1.526-1.665-3.089-2.523-4.619c-0.171-0.305-0.459-0.594-0.763-0.765c-1.442-0.811-2.908-1.579-4.544-2.457
		c0,0.609-0.059,1.072,0.01,1.514c0.34,2.169-0.291,3.9-2.111,5.214c-0.674,0.487-1.206,1.172-1.796,1.773
		c-0.586,0.597-0.864,1.325-0.863,2.157c0.001,2.295,0.026,4.59-0.003,6.884c-0.008,0.612,0.169,0.853,0.794,0.803
		c0.416-0.033,0.84,0.061,1.259,0.055c1.017-0.015,1.644,0.467,2.046,1.394c0.309,0.712,0.248,1.344-0.349,1.758
		c-0.992,0.687-2.042,1.302-3.112,1.861c-0.721,0.376-1.535,0.571-2.274,0.917c-0.23,0.108-0.48,0.438-0.499,0.684
		c-0.064,0.815-0.162,1.667,0.01,2.448c0.152,0.689,0.531,1.411,1.013,1.928c1.498,1.608,3.1,3.118,4.645,4.684
		c0.308,0.312,0.56,0.356,0.984,0.207c0.327-0.115,0.741,0.019,1.274,0.052c-0.193,0.307-0.231,0.427-0.314,0.488
		c-0.569,0.415-0.693,0.81-0.09,1.339c0.152,0.134,0.065,0.54,0.088,0.821c-0.276-0.043-0.627,0.005-0.814-0.148
		c-0.359-0.293-0.652-0.551-1.176-0.436c-0.183,0.04-0.469-0.174-0.641-0.34c-1.108-1.075-2.181-2.188-3.307-3.243
		c-0.259-0.243-0.676-0.326-1.031-0.455c-0.124-0.045-0.283,0.02-0.418-0.005c-2.02-0.377-3.558,0.358-4.77,1.973
		c-0.403,0.537-0.968,0.949-1.431,1.444c-0.382,0.409-0.769,0.692-1.384,0.677c-0.263-0.006-0.517,0.351-0.807,0.46
		c-0.231,0.087-0.51,0.049-0.767,0.066c0.002-0.243-0.098-0.615,0.021-0.708C43.491,65.471,43.03,64.966,42.406,64.45z"/>
	<path fill="#FFFFFF" d="M33.437,76.345c-0.316,0.188-0.552,0.274-0.715,0.435c-1.697,1.68-3.381,3.372-5.07,5.059
		c-0.232,0.232-0.451,0.48-0.707,0.682c-0.837,0.66-1.668,0.636-2.713-0.113c0.161-0.188,0.305-0.382,0.474-0.551
		c2.709-2.716,5.409-5.442,8.143-8.132c0.512-0.504,0.759-1.012,0.681-1.722c-0.049-0.447-0.009-0.904-0.009-1.357
		c-0.065-0.022-0.13-0.043-0.196-0.065c-0.297,0.279-0.602,0.55-0.891,0.838c-2.367,2.366-4.726,4.741-7.097,7.102
		c-1.023,1.018-2.046,1.073-3.059,0.162c0.111-0.135,0.214-0.282,0.339-0.407c3.381-3.368,6.754-6.744,10.157-10.091
		c0.54-0.532,0.847-1.068,0.754-1.837c-0.052-0.431-0.009-0.873-0.009-1.517c-0.335,0.271-0.532,0.402-0.696,0.566
		c-2.917,2.907-5.823,5.825-8.746,8.726c-1.076,1.068-1.945,1.12-3.075,0.19c0.332-0.35,0.655-0.706,0.993-1.045
		c3.673-3.675,7.344-7.351,11.029-11.012c0.362-0.359,0.516-0.724,0.506-1.235c-0.031-1.545-0.016-3.091-0.014-4.636
		c0-0.134,0.033-0.269,0.062-0.492c0.175,0.13,0.305,0.206,0.409,0.308c1.186,1.161,2.382,2.312,3.538,3.503
		c0.215,0.221,0.373,0.602,0.374,0.909c0.036,10.421,0.053,20.841,0.065,31.262c0.002,1.71-0.88,2.886-2.376,3.583
		c-1.532,0.714-3.028,0.557-4.338-0.544c-0.931-0.782-1.306-1.846-1.039-3.032c0.298-1.323,1.043-2.357,2.376-2.821
		c0.793-0.276,1.472-0.04,1.943,0.582c-0.46-0.07-0.899-0.217-1.325-0.185c-0.902,0.067-1.615,0.726-1.734,1.485
		c-0.177,1.128,0.371,2.226,1.313,2.632c1.614,0.695,3.095-0.257,3.111-2.013c0.011-1.288-0.013-2.576,0.002-3.864
		c0.005-0.47-0.113-0.646-0.645-0.625c-1.323,0.053-2.65,0.018-4.158,0.018c0.23-0.296,0.321-0.442,0.439-0.561
		c1.287-1.293,2.567-2.593,3.876-3.862c0.37-0.358,0.524-0.728,0.494-1.235c-0.037-0.618-0.009-1.24-0.009-2.075
		c-0.365,0.311-0.562,0.458-0.735,0.63c-1.742,1.732-3.48,3.468-5.218,5.204c-0.995,0.994-1.922,1.003-2.96-0.125
		c0.853-0.805,1.723-1.607,2.57-2.432c1.006-0.979,1.924-2.061,3.008-2.942C33.663,78.797,33.607,77.719,33.437,76.345z"/>
	<path fill="#FFFFFF" d="M74.738,85.172c-0.943,0.994-1.843,1.019-2.782,0.093c-1.764-1.74-3.51-3.499-5.265-5.249
		c-0.177-0.177-0.363-0.345-0.554-0.526c-0.46,0.767-0.278,2.61,0.271,3.158c1.259,1.256,2.52,2.511,3.778,3.769
		c0.144,0.144,0.274,0.302,0.563,0.624c-0.586,0-0.987-0.001-1.389,0c-0.913,0.003-1.826,0.022-2.739,0.006
		c-0.487-0.009-0.729,0.133-0.717,0.677c0.027,1.31-0.009,2.622,0.01,3.933c0.017,1.184,0.821,2.06,1.909,2.13
		c1.26,0.081,2.297-0.715,2.469-1.894c0.268-1.835-0.951-2.847-2.73-2.268c-0.059,0.019-0.128,0.01-0.277,0.019
		c0.367-0.622,0.905-0.695,1.463-0.657c1.79,0.121,3.331,2.483,2.818,4.296c-0.577,2.038-2.924,3.123-4.973,2.333
		c-1.61-0.621-2.81-2.212-2.791-4.328c0.088-9.973,0.057-19.947,0.023-29.92c-0.003-0.907,0.27-1.533,0.903-2.138
		c1.142-1.091,2.222-2.247,3.462-3.513c0.041,0.395,0.073,0.567,0.074,0.739c0.006,1.522,0.025,3.044-0.001,4.565
		c-0.009,0.508,0.139,0.876,0.502,1.237c3.292,3.259,6.566,6.537,9.85,9.804c0.741,0.737,1.502,1.452,2.244,2.167
		c-0.852,1.027-2.158,0.886-3.039-0.011c-1.851-1.884-3.73-3.739-5.598-5.607c-1.091-1.091-2.179-2.184-3.273-3.272
		c-0.142-0.141-0.309-0.257-0.479-0.398c-0.446,1.009-0.2,2.44,0.483,3.122c3.43,3.42,6.857,6.843,10.285,10.266
		c0.097,0.097,0.183,0.207,0.27,0.306c-0.485,0.628-1.259,0.9-1.917,0.594c-0.435-0.202-0.856-0.491-1.197-0.828
		c-2.446-2.412-4.867-4.849-7.306-7.269c-0.169-0.168-0.414-0.259-0.623-0.385c-0.06,0.231-0.133,0.46-0.177,0.695
		c-0.225,1.179,0.313,1.989,1.145,2.793c2.658,2.568,5.244,5.21,7.856,7.824c0.094,0.094,0.172,0.206,0.254,0.305
		c-0.767,0.779-1.739,0.886-2.592,0.192c-0.74-0.602-1.396-1.308-2.075-1.983c-1.31-1.302-2.609-2.615-3.917-3.919
		c-0.14-0.14-0.31-0.25-0.483-0.387c-0.457,1.06-0.203,2.409,0.508,3.114c1.828,1.811,3.645,3.633,5.465,5.452
		C74.543,84.927,74.625,85.038,74.738,85.172z"/>
	<path fill="#FFFFFF" d="M37.269,9.937c0.814-0.612,1.401-0.587,2.153,0.149c1.454,1.423,2.878,2.876,4.315,4.315
		c0.43,0.43,0.933,0.806,1.281,1.294c0.75,1.049,1.77,0.925,3.067,0.802c-3.522-3.538-6.914-6.945-10.339-10.385
		c0.514-0.552,1.055-0.615,1.603-0.277c0.392,0.241,0.739,0.568,1.07,0.894c1.785,1.761,3.548,3.544,5.349,5.288
		c0.235,0.227,0.64,0.388,0.969,0.392c2.762,0.03,5.524,0.034,8.286-0.003c0.371-0.005,0.828-0.189,1.094-0.447
		c1.933-1.87,3.823-3.785,5.736-5.675c0.825-0.814,1.275-0.863,2.27-0.22c-3.432,3.443-6.844,6.866-10.256,10.289
		c0.033,0.061,0.067,0.122,0.1,0.182c0.909-0.03,1.799,0.265,2.632-0.63c1.83-1.965,3.775-3.823,5.682-5.716
		c0.81-0.804,1.319-0.875,2.268-0.286c-0.558,0.572-1.096,1.132-1.643,1.684c-2.877,2.906-5.762,5.805-8.629,8.721
		c-0.42,0.427-0.842,0.65-1.469,0.626c-1.356-0.052-2.715,0.002-4.072-0.03c-0.298-0.007-0.673-0.11-0.874-0.309
		c-3.489-3.449-6.957-6.92-10.427-10.388C37.373,10.144,37.339,10.053,37.269,9.937z M50.752,19.819
		c1.104,0.039,2.028-0.81,2.086-1.917c0.056-1.066-0.841-2.039-1.926-2.089c-1.081-0.049-2.054,0.854-2.077,1.929
		C48.811,18.88,49.642,19.78,50.752,19.819z"/>
	<path fill="#FFFFFF" d="M55.68,73.881c0.018,0.307,0.04,0.51,0.04,0.714c0.002,2.714,0.016,5.428-0.019,8.141
		c-0.004,0.35-0.181,0.772-0.42,1.031c-1.315,1.425-2.685,2.799-4.01,4.215c-0.341,0.364-0.559,0.366-0.899,0.008
		c-1.383-1.458-2.794-2.888-4.178-4.345c-0.162-0.171-0.308-0.442-0.309-0.667c-0.014-3.065-0.001-6.129,0.009-9.194
		c0-0.064,0.046-0.129,0.1-0.273c0.394,0.089,0.797,0.165,1.19,0.273c1.081,0.298,2.152,0.632,3.24,0.902
		c0.347,0.086,0.742,0.073,1.098,0.009C52.873,74.453,54.216,74.171,55.68,73.881z"/>
	<path fill="#FFFFFF" d="M50.951,63.177c1.03,1.055,2.027,2.1,3.056,3.112c0.255,0.251,0.591,0.461,0.929,0.577
		c1.393,0.477,2.798,0.922,4.207,1.35c0.384,0.116,0.553,0.257,0.431,0.684c-0.264,0.921-0.464,1.861-0.754,2.772
		c-0.073,0.229-0.359,0.5-0.591,0.55c-2.238,0.484-4.484,0.936-6.733,1.368c-0.355,0.068-0.753,0.05-1.107-0.031
		c-2.301-0.526-4.591-1.1-6.895-1.613c-0.523-0.116-0.74-0.36-0.841-0.859c-0.148-0.732-0.344-1.457-0.561-2.172
		c-0.127-0.417,0-0.577,0.4-0.7c1.452-0.445,2.902-0.902,4.335-1.405c0.423-0.148,0.843-0.403,1.17-0.709
		C48.981,65.179,49.918,64.207,50.951,63.177z"/>
	<path fill="#FFFFFF" d="M60.334,64.594c-0.199-0.31-0.309-0.482-0.406-0.633c0.832-0.822,1.654-1.634,2.502-2.472
		c0,8.661,0,17.327,0,25.932c-1.555-1.507-3.112-3.002-4.644-4.521c-0.157-0.155-0.236-0.456-0.237-0.69
		c-0.016-2.855-0.004-5.71-0.02-8.565c-0.002-0.378,0.137-0.546,0.478-0.641c0.404-0.113,0.793-0.351,1.198-0.376
		c0.552-0.035,0.695-0.363,0.809-0.785c0.297-1.096,0.581-2.196,0.902-3.284c0.147-0.499-0.108-0.765-0.484-0.936
		c-0.431-0.195-0.542-0.487-0.545-0.941c-0.002-0.315-0.218-0.624-0.291-0.946c-0.042-0.186-0.066-0.454,0.034-0.579
		C59.814,64.926,60.097,64.775,60.334,64.594z"/>
	<path fill="#FFFFFF" d="M39.463,87.507c0-8.765,0-17.387,0-26.088c0.827,0.866,1.591,1.665,2.399,2.511
		c-0.037,0.058-0.148,0.229-0.279,0.433c0.151,0.211,0.293,0.449,0.476,0.652c0.28,0.311,0.37,0.581-0.028,0.87
		c-0.097,0.07-0.196,0.236-0.183,0.344c0.092,0.748-0.109,1.311-0.848,1.641c-0.105,0.047-0.162,0.379-0.121,0.549
		c0.302,1.24,0.624,2.475,0.972,3.703c0.046,0.161,0.251,0.316,0.42,0.394c0.294,0.137,0.615,0.219,0.928,0.311
		c1.186,0.35,1.187,0.348,1.187,1.606c0,2.552,0.016,5.105-0.021,7.656c-0.005,0.343-0.197,0.759-0.439,1.01
		c-1.312,1.366-2.667,2.692-4.009,4.029C39.808,87.237,39.681,87.327,39.463,87.507z"/>
	<path fill="#FFFFFF" d="M20.832,71.886c0-0.437,0-0.874,0-1.311c-0.002-3.767,0.005-7.534-0.017-11.301
		c-0.003-0.495,0.188-0.682,0.594-0.948c0.577-0.377,1.01-0.977,1.499-1.487c0.149-0.155,0.269-0.458,0.421-0.47
		c0.674-0.054,1.356-0.047,2.031-0.008c0.102,0.006,0.267,0.299,0.268,0.461c0.017,3.393,0.019,6.785,0.008,10.178
		c-0.001,0.19-0.085,0.426-0.214,0.562c-1.425,1.511-2.867,3.007-4.304,4.507C21.022,72.007,20.927,71.946,20.832,71.886z"/>
	<path fill="#FFFFFF" d="M80.797,72.135c-1.256-1.305-2.366-2.57-3.6-3.699c-0.822-0.751-1.085-1.549-1.059-2.637
		c0.071-2.925,0.037-5.853,0.01-8.78c-0.005-0.562,0.151-0.787,0.714-0.687c0.136,0.024,0.281,0.015,0.421,0.003
		c0.839-0.073,1.545-0.069,1.93,0.967c0.179,0.481,0.897,0.754,1.35,1.144c0.171,0.147,0.407,0.36,0.408,0.544
		c0.022,4.238,0.016,8.476,0.011,12.714C80.982,71.767,80.931,71.829,80.797,72.135z"/>
	<path fill="#FFFFFF" d="M64.504,38.877c-0.589,0.114-0.996,0.815-1.629,0.183c-0.081-0.081-0.494,0.068-0.677,0.209
		c-1.303,1.004-2.751,1.435-4.397,1.275c-0.446-0.043-0.648-0.155-0.611-0.614c0.021-0.256,0.003-0.515,0.003-0.772
		c-0.002-1.601,0.741-2.385,2.369-2.309c1.11,0.052,2.224,0.228,3.311,0.465C63.628,37.479,64.166,38.023,64.504,38.877z"/>
	<path fill="#FFFFFF" d="M44.727,39.091c-0.158,1.482-0.159,1.436-1.602,1.48c-1.327,0.04-2.391-0.542-3.428-1.241
		c-0.352-0.237-0.62-0.493-1.1-0.092c-0.169,0.142-0.748-0.166-1.106-0.34c-0.048-0.023,0.023-0.563,0.18-0.689
		c0.483-0.388,0.997-0.875,1.567-0.989c1.203-0.24,2.45-0.35,3.677-0.34c0.465,0.004,1.04,0.39,1.356,0.774
		C44.566,38.014,44.586,38.602,44.727,39.091z"/>
	<path fill="#FFFFFF" d="M60.976,60.951c-0.393,0.662-0.71,0.692-1.213,0.176c-1.985-2.038-4.014-4.033-6.027-6.045
		c0.644-0.618,0.794-0.617,1.364-0.046c1.831,1.834,3.665,3.664,5.496,5.497C60.725,60.663,60.843,60.804,60.976,60.951z"/>
	<path fill="#FFFFFF" d="M48.034,54.955c-2.194,2.225-4.354,4.417-6.563,6.658c-0.205-0.187-0.403-0.369-0.674-0.616
		c0.495-0.517,0.947-1.006,1.417-1.476c1.487-1.488,2.996-2.954,4.462-4.462C47.148,54.572,47.551,54.525,48.034,54.955z"/>
	<path fill="#FFFFFF" d="M40.055,60.157c-0.258-0.204-0.47-0.373-0.781-0.619c1.434-1.406,2.764-2.708,4.092-4.013
		c0.499-0.491,1.025-0.959,1.483-1.486c0.484-0.557,0.855-0.326,1.259,0.034C44.084,56.107,42.086,58.115,40.055,60.157z"/>
	<path fill="#FFFFFF" d="M55.783,54.005c0.187-0.101,0.449-0.241,0.602-0.324c2.016,1.996,3.983,3.942,6.002,5.941
		c-0.171,0.18-0.357,0.377-0.517,0.545C59.808,58.08,57.816,56.064,55.783,54.005z"/>
	<path fill="#FFFFFF" d="M59.259,62.298c-1.086,0.362-1.724-0.553-2.447-1.274c-1.157-1.153-2.271-2.352-3.465-3.465
		c-0.554-0.516-0.587-1.045-0.45-1.701C55.067,58.055,57.21,60.224,59.259,62.298z"/>
	<path fill="#FFFFFF" d="M42.363,62.366c2.182-2.169,4.319-4.294,6.456-6.418c0.261,0.264,0.291,0.893-0.091,1.284
		c-1.596,1.634-3.181,3.281-4.848,4.841C43.569,62.364,42.9,62.274,42.363,62.366z"/>
	<path fill="#FFFFFF" d="M57.473,52.916c0.232-0.148,0.463-0.294,0.682-0.434c1.878,1.889,3.73,3.752,5.641,5.673
		c-0.161,0.176-0.354,0.387-0.518,0.567C61.328,56.772,59.426,54.87,57.473,52.916z"/>
	<path fill="#FFFFFF" d="M44.349,52.984c-1.921,1.921-3.812,3.814-5.799,5.802c-0.182-0.202-0.376-0.417-0.736-0.816
		c0.396-0.307,0.776-0.546,1.088-0.853c1.381-1.361,2.771-2.714,4.095-4.129C43.511,52.44,43.879,52.427,44.349,52.984z"/>
	<path fill="#FFFFFF" d="M20.287,54.234c0.66-0.008,1.536,0.816,1.558,1.465c0.024,0.717-0.845,1.623-1.557,1.624
		c-0.638,0.001-1.614-0.953-1.591-1.555C18.72,55.12,19.63,54.242,20.287,54.234z"/>
	<path fill="#FFFFFF" d="M83.037,55.833c-0.01,0.739-0.787,1.526-1.494,1.515c-0.76-0.012-1.515-0.809-1.502-1.586
		c0.013-0.784,0.778-1.55,1.535-1.536C82.324,54.239,83.048,55.036,83.037,55.833z"/>
	<path fill="#FFFFFF" d="M51.089,21.779c0.192,0.283,0.266,0.434,0.378,0.551c1.146,1.202,1.225,0.779-0.131,2.123
		c-0.104,0.103-0.44,0.115-0.568,0.026c-0.434-0.302-0.824-0.669-1.217-0.999C50.126,22.844,50.542,22.385,51.089,21.779z"/>
	<path fill="#FFFFFF" d="M68.215,92.402c-0.456-0.065-0.79-0.338-0.824-0.887c-0.031-0.497,0.433-0.991,0.908-0.944
		c0.523,0.052,0.858,0.366,0.915,0.894C69.265,91.932,68.767,92.407,68.215,92.402z"/>
	<path fill="#FFFFFF" d="M34.451,91.472c-0.079,0.51-0.306,0.878-0.872,0.917c-0.52,0.036-0.96-0.366-0.977-0.876
		c-0.015-0.47,0.462-0.979,0.933-0.942C34.068,90.614,34.353,90.953,34.451,91.472z"/>
	<path fill="#FFFFFF" d="M51.858,28.33c-0.38,0.274-0.609,0.568-0.819,0.555c-0.214-0.014-0.409-0.328-0.613-0.511
		c0.2-0.211,0.374-0.545,0.607-0.593C51.217,27.742,51.473,28.057,51.858,28.33z"/>
	<path fill="#FFFFFF" d="M51.832,32.39c-0.344,0.289-0.551,0.601-0.764,0.605c-0.209,0.003-0.422-0.308-0.633-0.481
		c0.186-0.223,0.34-0.569,0.569-0.63C51.181,31.837,51.454,32.144,51.832,32.39z"/>
	<path fill="#FFFFFF" d="M51.829,30.373c-0.355,0.272-0.578,0.575-0.789,0.568c-0.211-0.007-0.411-0.326-0.616-0.508
		c0.197-0.215,0.368-0.553,0.601-0.605C51.204,29.788,51.464,30.11,51.829,30.373z"/>
	<path fill="#FFFFFF" d="M81.051,34.305c0.002-0.482-0.142-0.676-0.643-0.652c-0.701,0.033-1.408,0.043-2.105-0.018
		c-0.233-0.02-0.444-0.289-0.664-0.444c0.214-0.164,0.415-0.445,0.644-0.47c0.625-0.07,1.263-0.061,1.893-0.03
		c0.508,0.025,0.67-0.181,0.618-0.659c-0.248-2.31-1.41-3.786-3.873-4.058c-0.59-0.065-0.826,0.092-0.822,0.747
		c0.024,4.121,0.005,8.243,0.001,12.364c-0.001,0.851-0.267,1.345-0.746,1.267c-0.738-0.12-0.659-0.728-0.658-1.268
		c0.001-5.082-0.008-10.163,0.013-15.245c0.002-0.592-0.182-0.762-0.759-0.748c-1.428,0.035-2.857,0.012-4.285,0.005
		c-0.396-0.002-0.905,0.04-0.921-0.504c-0.018-0.61,0.533-0.55,0.94-0.555c1.171-0.015,2.342-0.005,3.513-0.004
		c0.359,0,0.718,0,1.23,0c-0.213-0.274-0.296-0.408-0.404-0.517c-0.627-0.629-1.25-1.262-1.895-1.873
		c-0.311-0.294-0.396-0.5-0.031-0.85c0.369-0.354,0.554-0.162,0.794,0.103c0.704,0.777,1.413,1.548,2.102,2.301
		c2.71-2.191,2.866-5.219,0.113-7.396c-0.179,0.17-0.367,0.341-0.546,0.52c-1.158,1.158-2.331,2.302-3.462,3.486
		c-0.452,0.473-0.996,0.441-1.484,0.294c-0.184-0.056-0.199-0.619-0.323-0.939c-0.12-0.309-0.224-0.655-0.44-0.89
		c-0.245-0.267-0.605-0.429-0.978-0.678c0.426-0.383,0.609-0.548,0.817-0.736c0.437,0.412,0.836,0.787,1.223,1.152
		c1.499-1.116,1.619-2.932,0.354-4.169c-0.288-0.282-0.46-0.199-0.692,0.038c-0.54,0.55-1.189,1.02-1.626,1.641
		c-0.831,1.18-1.966,0.979-3.305,0.923c2.192-2.203,4.266-4.288,6.506-6.54c-0.74-0.299-1.268-0.603-1.836-0.724
		c-1.512-0.323-2.554,0.493-3.554,1.508c-3.251,3.299-6.554,6.546-9.813,9.836c-0.895,0.904-1.708,1.889-2.707,3.002
		c0.73,0.654,1.432,1.283,2.134,1.912c-0.502,0.166-0.937,0.195-1.366,0.159c-0.587-0.049-0.822,0.122-0.809,0.772
		c0.043,2.107,0.02,4.215,0.014,6.322c-0.001,0.228,0.03,0.529-0.095,0.672c-0.658,0.748-1.362,1.455-2.147,2.278
		c-0.643-0.682-1.245-1.267-1.778-1.91c-0.215-0.259-0.386-0.643-0.392-0.973c-0.033-2.107-0.047-4.216,0.006-6.322
		c0.018-0.716-0.227-0.907-0.879-0.837c-0.413,0.044-0.834,0.008-1.252,0.008c-0.038-0.092-0.077-0.184-0.115-0.276
		c0.694-0.643,1.387-1.286,2.307-2.14c-1.95-1.839-3.845-3.571-5.676-5.368c-2.602-2.552-5.154-5.156-7.735-7.73
		c-1.112-1.109-2.985-1.294-4.199-0.469c-0.418,0.284-0.462,0.478-0.073,0.85c1.198,1.15,2.36,2.337,3.533,3.513
		c0.781,0.782,1.558,1.569,2.474,2.491c-0.524,0-0.848-0.038-1.16,0.007c-0.837,0.123-1.47-0.161-2.025-0.797
		c-0.656-0.752-1.384-1.441-2.067-2.144c-1.312,1.003-1.617,2.387-0.879,3.594c0.621,1.017,0.706,1.028,1.534,0.194
		c0.574-0.578,0.68-0.559,1.075,0.23c-0.805,0.63-1.48,1.354-1.168,2.532c-0.784,0.137-1.378,0.146-1.93-0.455
		c-0.965-1.049-2.015-2.02-3.034-3.019c-0.294-0.288-0.606-0.56-0.903-0.833c-2.663,2.401-2.546,5.174,0.224,7.413
		c0.801-0.892,1.622-1.805,2.488-2.769c0.294,0.286,0.507,0.492,0.772,0.749c-0.932,0.942-1.8,1.82-2.809,2.84
		c1.245,0,2.244-0.005,3.243,0.002c0.678,0.004,1.359-0.01,2.032,0.058c0.189,0.019,0.352,0.301,0.526,0.463
		c-0.161,0.172-0.295,0.397-0.493,0.501c-0.17,0.089-0.412,0.05-0.622,0.051c-1.405,0.004-2.812,0.04-4.215-0.013
		c-0.622-0.023-0.731,0.184-0.727,0.753c0.024,3.911,0.013,7.821,0.013,11.732c0,1.335,0.032,2.671-0.031,4.003
		c-0.013,0.272-0.35,0.687-0.61,0.754c-0.417,0.107-0.658-0.252-0.683-0.687c-0.012-0.21-0.013-0.421-0.013-0.632
		c-0.006-4.098-0.023-8.196-0.004-12.294c0.003-0.598-0.19-0.791-0.766-0.743c-2.671,0.224-3.762,1.939-3.977,4.267
		c-0.012,0.135,0.271,0.414,0.433,0.427c0.652,0.053,1.315-0.02,1.963,0.054c0.274,0.031,0.521,0.31,0.78,0.477
		c-0.249,0.154-0.487,0.415-0.749,0.44c-0.673,0.065-1.357,0.044-2.035,0.021c-0.452-0.015-0.616,0.142-0.613,0.607
		c0.016,3.114,0.02,6.229-0.001,9.343c-0.004,0.537,0.189,0.679,0.695,0.675c2.552-0.019,5.105-0.025,7.657,0.001
		c0.57,0.006,0.725-0.199,0.717-0.734c-0.025-1.569-0.033-3.138,0.007-4.706c0.008-0.331,0.169-0.73,0.394-0.972
		c1.163-1.249,2.371-2.455,3.56-3.68c0.115-0.119,0.204-0.263,0.403-0.523c-1.328,0-2.49,0.002-3.652-0.001
		c-0.491-0.002-0.989,0.028-1.47-0.046c-0.192-0.03-0.346-0.302-0.517-0.463c0.166-0.141,0.313-0.33,0.505-0.409
		c0.184-0.075,0.415-0.043,0.625-0.043c1.382-0.003,2.765-0.043,4.144,0.016c0.707,0.03,0.914-0.153,0.908-0.883
		c-0.036-4.262-0.01-8.524-0.028-12.786c-0.002-0.567,0.154-0.802,0.752-0.776c0.888,0.04,1.786,0.079,2.667-0.011
		c1.088-0.111,1.509,0.649,2.206,1.409c-1.277,0-2.37,0.003-3.463-0.002c-0.322-0.001-0.617-0.012-0.615,0.449
		c0.007,2.197,0.003,4.394,0.003,6.655c0.349,0.025,0.645,0.063,0.942,0.063c2.622,0.006,5.245,0.028,7.867-0.011
		c0.701-0.01,0.864,0.229,0.846,0.885c-0.046,1.755-0.037,3.512-0.019,5.268c0.003,0.278,0.088,0.627,0.268,0.819
		c1.391,1.483,2.822,2.928,4.223,4.401c0.317,0.333,0.525,0.338,0.851-0.002c1.328-1.383,2.703-2.721,4.011-4.122
		c0.268-0.287,0.441-0.77,0.452-1.169c0.048-1.778,0.045-3.559,0.01-5.338c-0.011-0.585,0.162-0.751,0.748-0.745
		c2.88,0.028,5.76,0.003,8.64,0.019c0.447,0.002,0.632-0.116,0.628-0.587c-0.017-1.99-0.016-3.981,0-5.971
		c0.003-0.447-0.138-0.638-0.605-0.62c-0.678,0.027-1.358,0.005-2.037,0.004c-0.492-0.001-0.984,0-1.54,0
		c0.67-1.079,1.464-1.561,2.637-1.401c0.69,0.094,1.406,0.058,2.104,0.005c0.63-0.047,0.789,0.182,0.786,0.793
		c-0.022,4.309,0.002,8.618-0.019,12.926c-0.003,0.558,0.153,0.732,0.71,0.72c1.568-0.033,3.138-0.037,4.706,0.006
		c0.281,0.008,0.554,0.295,0.831,0.453c-0.267,0.163-0.527,0.451-0.802,0.467c-1.027,0.059-2.059,0.03-3.09,0.032
		c-0.549,0.001-1.098,0-1.816,0c0.229,0.277,0.308,0.387,0.402,0.484c1.189,1.225,2.399,2.43,3.554,3.685
		c0.253,0.275,0.427,0.725,0.438,1.101c0.048,1.568,0.035,3.138,0.011,4.706c-0.007,0.447,0.109,0.632,0.584,0.629
		c2.623-0.016,5.246-0.018,7.868-0.002c0.473,0.003,0.607-0.187,0.605-0.626C81.039,40.534,81.036,37.419,81.051,34.305z
		 M37.641,25.487c0.662-0.597,1.32-1.191,1.973-1.78c0.488,0.49,1.118,1.124,1.771,1.78C40.13,25.487,38.885,25.487,37.641,25.487z
		 M39.702,22.892c-0.104,0.09-0.419,0.089-0.523-0.002c-0.589-0.513-1.143-1.065-1.709-1.604c0.036-0.054,0.071-0.109,0.107-0.163
		c1.257,0,2.514,0,3.771,0c0.04,0.046,0.079,0.091,0.119,0.137C40.882,21.808,40.309,22.37,39.702,22.892z M42.15,25.507
		c0.629-0.623,1.278-1.267,1.996-1.979c0.592,0.631,1.205,1.283,1.857,1.979C44.709,25.507,43.416,25.507,42.15,25.507z
		 M44.255,22.955c-0.074,0.069-0.334,0.053-0.419-0.023c-0.618-0.551-1.213-1.127-1.94-1.813c1.486,0,2.74,0,4.21,0
		C45.395,21.832,44.838,22.407,44.255,22.955z M55.877,25.487c0.746-0.697,1.404-1.312,2.072-1.936
		c0.575,0.615,1.198,1.281,1.811,1.936C58.573,25.487,57.283,25.487,55.877,25.487z M58.137,22.903
		c-0.095,0.082-0.417,0.039-0.532-0.062c-0.577-0.508-1.119-1.054-1.807-1.715c1.463,0,2.737,0,4.238,0
		C59.319,21.807,58.746,22.376,58.137,22.903z M60.532,25.498c0.718-0.685,1.363-1.302,2.029-1.938
		c0.574,0.621,1.192,1.287,1.794,1.938C63.178,25.498,61.913,25.498,60.532,25.498z M64.434,21.129c0.025,0.05,0.051,0.1,0.076,0.15
		c-0.542,0.511-1.064,1.046-1.639,1.516c-0.149,0.122-0.548,0.145-0.687,0.033c-0.594-0.479-1.134-1.026-1.694-1.548
		c0.032-0.05,0.064-0.101,0.096-0.151C61.869,21.129,63.151,21.129,64.434,21.129z"/>
	<path fill="#FFFFFF" d="M50.875,18.448c-0.223-0.275-0.46-0.44-0.456-0.598c0.004-0.162,0.245-0.317,0.382-0.476
		c0.154,0.141,0.406,0.265,0.434,0.428C51.262,17.956,51.054,18.15,50.875,18.448z"/>
</g>
</svg>
