<?xml version="1.0" encoding="utf-8"?>
<!-- Generator: Adobe Illustrator 17.0.0, SVG Export Plug-In . SVG Version: 6.00 Build 0)  -->
<!DOCTYPE svg PUBLIC "-//W3C//DTD SVG 1.1//EN" "http://www.w3.org/Graphics/SVG/1.1/DTD/svg11.dtd">
<svg version="1.1" id="Layer_1" xmlns="http://www.w3.org/2000/svg" xmlns:xlink="http://www.w3.org/1999/xlink" x="0px" y="0px"
	 width="100px" height="100px" viewBox="0 0 100 100" enable-background="new 0 0 100 100" xml:space="preserve">
<g opacity="0.96">
	<path fill="#FFFFFF" d="M23.448,45.96c-0.042-0.596-0.193-1.149-0.452-1.661c-0.26-0.511-0.599-0.953-1.02-1.324
		c-0.42-0.371-0.869-0.592-1.345-0.662c-0.771-0.112-1.598-0.144-2.481-0.095c-0.883,0.049-1.78,0.168-2.691,0.357
		c-0.911,0.189-1.822,0.452-2.733,0.788c-0.911,0.336-1.78,0.732-2.607,1.188c-0.827,0.456-1.595,0.971-2.302,1.545
		c-0.708,0.575-1.314,1.198-1.818,1.871c-0.168,0.224-0.326,0.462-0.473,0.715c-0.147,0.252-0.242,0.501-0.284,0.746
		c-0.042,0.246-0.011,0.48,0.095,0.704c0.105,0.224,0.326,0.414,0.662,0.568c0.21-0.56,0.606-1.159,1.188-1.798
		c0.581-0.637,1.244-1.237,1.987-1.797c0.743-0.56,1.52-1.047,2.333-1.461c0.813-0.413,1.569-0.676,2.271-0.788
		c-0.084,0.084-0.158,0.175-0.221,0.273c-0.063,0.098-0.123,0.189-0.178,0.273c-0.35,0.519-0.733,1.061-1.146,1.629
		c-0.414,0.568-0.816,1.156-1.209,1.766c-0.393,0.61-0.754,1.23-1.083,1.86c-0.33,0.631-0.582,1.261-0.757,1.892
		c-0.175,0.631-0.249,1.251-0.221,1.861c0.028,0.61,0.203,1.202,0.525,1.776c-0.715,0.266-1.402,0.504-2.06,0.715
		c-0.659,0.21-1.366,0.315-2.123,0.315c0.056-0.182,0.144-0.329,0.263-0.442c0.119-0.112,0.245-0.21,0.378-0.294
		c0.133-0.084,0.27-0.168,0.41-0.252c0.14-0.084,0.273-0.189,0.399-0.315c-0.07-0.098-0.14-0.192-0.21-0.284
		c-0.07-0.091-0.14-0.192-0.21-0.305c-0.168,0.056-0.375,0.137-0.62,0.242c-0.245,0.105-0.473,0.235-0.683,0.389
		c-0.21,0.154-0.375,0.329-0.494,0.525c-0.119,0.197-0.137,0.421-0.053,0.673c0.084,0.154,0.179,0.305,0.284,0.452
		c0.105,0.147,0.224,0.277,0.357,0.389c0.133,0.112,0.287,0.203,0.462,0.273c0.175,0.07,0.375,0.098,0.599,0.084
		c0.308-0.014,0.613-0.031,0.914-0.053c0.301-0.021,0.592-0.067,0.872-0.137c1.584-0.462,3.125-1.016,4.625-1.661
		c1.5-0.645,2.901-1.398,4.205-2.26c1.303-0.862,2.491-1.843,3.563-2.943c1.072-1.1,1.979-2.33,2.722-3.689
		C23.37,47.105,23.489,46.556,23.448,45.96z M22.344,45.371c-0.049,0.203-0.115,0.41-0.2,0.62c-0.294,0.701-0.694,1.388-1.198,2.06
		c-0.505,0.673-1.079,1.324-1.724,1.955c-0.645,0.631-1.342,1.23-2.092,1.797c-0.75,0.568-1.517,1.1-2.302,1.598
		c-0.785,0.497-1.57,0.946-2.355,1.345c-0.785,0.4-1.534,0.746-2.249,1.041c0.112-0.589,0.305-1.209,0.578-1.86
		c0.273-0.652,0.585-1.307,0.936-1.966c0.35-0.659,0.721-1.296,1.114-1.913c0.392-0.617,0.771-1.191,1.135-1.724
		c0.406-0.617,0.841-1.212,1.303-1.787c0.462-0.574,0.925-1.156,1.388-1.745c0.112-0.14,0.192-0.273,0.242-0.4
		c0.049-0.126-0.004-0.28-0.158-0.462c0.841-0.196,1.668-0.316,2.481-0.357c0.813-0.042,1.626,0.084,2.439,0.378
		c0.224,0.084,0.392,0.2,0.505,0.347c0.112,0.147,0.179,0.312,0.2,0.494C22.407,44.975,22.393,45.168,22.344,45.371z"/>
	<path fill="#FFFFFF" d="M24.961,48.934c0.266,0.126,0.442,0.175,0.525,0.147c0.084-0.028,0.182-0.154,0.294-0.378
		c0.056-0.112,0.105-0.203,0.147-0.273c0.042-0.07,0.077-0.137,0.105-0.2c0.028-0.063,0.059-0.126,0.095-0.189
		c0.035-0.063,0.087-0.15,0.158-0.263c0.126-0.224,0.213-0.417,0.263-0.578c0.049-0.161,0.049-0.301,0-0.42
		c-0.049-0.119-0.151-0.231-0.305-0.336c-0.154-0.105-0.365-0.214-0.631-0.326c-0.281-0.112-0.512-0.105-0.694,0.021
		c-0.182,0.126-0.326,0.305-0.431,0.536c-0.105,0.231-0.179,0.487-0.221,0.767c-0.042,0.28-0.063,0.525-0.063,0.736
		c0,0.266,0.081,0.441,0.242,0.525C24.607,48.787,24.778,48.865,24.961,48.934z"/>
	<path fill="#FFFFFF" d="M71.462,48.934c0.266,0.126,0.442,0.175,0.525,0.147c0.084-0.028,0.182-0.154,0.294-0.378
		c0.056-0.112,0.105-0.203,0.147-0.273c0.042-0.07,0.077-0.137,0.105-0.2c0.028-0.063,0.059-0.126,0.095-0.189
		c0.035-0.063,0.087-0.15,0.158-0.263c0.126-0.224,0.213-0.417,0.263-0.578c0.049-0.161,0.049-0.301,0-0.42
		c-0.049-0.119-0.151-0.231-0.305-0.336c-0.154-0.105-0.365-0.214-0.631-0.326c-0.281-0.112-0.512-0.105-0.694,0.021
		c-0.182,0.126-0.326,0.305-0.431,0.536c-0.105,0.231-0.179,0.487-0.221,0.767c-0.042,0.28-0.063,0.525-0.063,0.736
		c0,0.266,0.081,0.441,0.242,0.525C71.108,48.787,71.279,48.865,71.462,48.934z"/>
	<path fill="#FFFFFF" d="M92.915,50.395c-0.217-0.357-0.543-0.634-0.978-0.83c-1.009-0.476-2.081-0.732-3.216-0.767
		c-0.495-0.015-0.99,0.013-1.484,0.057c2.243-1.537,3.393-4.279,2.847-6.971c1.277,0.61,1.07,0.811,1.07,0.811
		c1.435-1.09,0.677-1.695,0.677-1.695c-0.031-0.063-0.105-0.111-0.21-0.146c0.806-0.278,1.076-0.917,1.076-0.917
		C92.603,38.742,91.5,38.34,91.5,38.34c-1.393-0.996-1.474-0.386-1.474-0.386c-1.194,1.131-0.402,2.405-0.402,2.405
		c-0.009,0.01-0.017,0.02-0.026,0.03c-0.755-1.652-2.1-2.87-3.684-3.503c0.277-3.213-2.671-3.406-2.671-3.406
		c0.946,0.975,0.509,2.078-0.146,2.925c-0.721,0.03-1.45,0.175-2.161,0.448c-0.774,0.297-1.464,0.72-2.054,1.237
		c-1.052-0.191-2.115-0.718-2.064-2.076c0,0-2.097,2.149,0.347,4.37l0.012-0.007c-0.743,1.615-0.861,3.516-0.174,5.306
		c0.977,2.546,3.315,4.149,5.865,4.346c-0.278,0.122-0.56,0.227-0.833,0.366c-1.065,0.54-2.032,1.139-2.901,1.797
		c0.084-0.378,0.154-0.76,0.21-1.146c0.056-0.385,0.056-0.75,0-1.093c-0.056-0.343-0.186-0.659-0.389-0.946
		c-0.203-0.287-0.536-0.522-0.999-0.704c-0.21-0.084-0.452-0.133-0.725-0.147c-0.273-0.014-0.543,0-0.809,0.042
		c-0.266,0.042-0.522,0.119-0.767,0.231c-0.245,0.113-0.445,0.252-0.599,0.421c-0.589,0.631-1.076,1.293-1.461,1.986
		c-0.203,0.366-0.382,0.761-0.541,1.183c-0.206,0.246-0.414,0.495-0.626,0.751c-0.308,0.372-0.624,0.725-0.946,1.062
		c-0.322,0.336-0.655,0.638-0.998,0.904c-0.344,0.266-0.697,0.477-1.062,0.631c0.084-0.392,0.217-0.785,0.4-1.177
		c0.182-0.392,0.378-0.785,0.588-1.177c0.21-0.392,0.414-0.785,0.61-1.177c0.196-0.392,0.357-0.785,0.483-1.177
		c0.056-0.168,0.035-0.336-0.063-0.504c-0.252-0.322-0.568-0.497-0.946-0.526c-0.378-0.028-0.694,0.098-0.946,0.378
		c-0.21,0.252-0.442,0.589-0.694,1.009c-0.106,0.177-0.207,0.359-0.307,0.543l-0.008-0.018c-0.308,0.196-0.645,0.392-1.009,0.589
		c-0.365,0.197-0.729,0.4-1.093,0.61c0.07-0.238,0.129-0.445,0.179-0.62c0.049-0.175,0.074-0.347,0.074-0.515
		c0-0.336-0.067-0.644-0.2-0.925c-0.133-0.28-0.315-0.508-0.547-0.683c-0.231-0.175-0.501-0.284-0.809-0.326
		c-0.308-0.042-0.645,0-1.009,0.126c-0.238,0.084-0.473,0.186-0.704,0.305c-0.231,0.119-0.494,0.249-0.789,0.389
		c0.308-0.687,0.659-1.482,1.051-2.386c0.392-0.904,0.816-1.815,1.272-2.733c0.455-0.918,0.946-1.794,1.472-2.628
		c0.525-0.834,1.083-1.524,1.671-2.07c-0.336-0.533-0.676-0.841-1.02-0.925c-0.344-0.084-0.733,0.063-1.167,0.442
		c-0.603,0.519-1.174,1.156-1.713,1.913c-0.539,0.757-1.051,1.587-1.535,2.491c-0.483,0.904-0.936,1.854-1.356,2.849
		c-0.42,0.995-0.809,1.997-1.167,3.006c-0.163,0.461-0.317,0.916-0.465,1.367c-0.372,0.296-0.755,0.597-1.154,0.903
		c-0.456,0.35-0.865,0.652-1.23,0.904c-0.365,0.252-0.655,0.428-0.872,0.526c-0.217,0.098-0.305,0.063-0.263-0.105
		c0.448-0.743,0.925-1.471,1.43-2.186c0.504-0.715,0.932-1.5,1.282-2.355c0.084-0.196,0.098-0.371,0.042-0.526
		c-0.056-0.154-0.154-0.301-0.294-0.441c-0.28-0.28-0.585-0.463-0.915-0.547c-0.329-0.084-0.697-0.042-1.104,0.126
		c-0.757,0.308-1.44,0.701-2.05,1.177c-0.61,0.477-1.23,0.946-1.861,1.409l1.156-1.955c-0.154-0.14-0.305-0.27-0.452-0.389
		c-0.147-0.119-0.302-0.21-0.463-0.273c-0.161-0.063-0.323-0.077-0.483-0.042c-0.161,0.035-0.333,0.144-0.515,0.326
		c-0.449,0.421-0.841,0.894-1.177,1.419c-0.336,0.526-0.635,1.083-0.894,1.671c-0.124,0.283-0.241,0.569-0.351,0.858
		c-0.071,0.092-0.145,0.187-0.227,0.288c-0.266,0.329-0.571,0.669-0.914,1.02c-0.344,0.35-0.725,0.683-1.146,0.999
		c-0.42,0.315-0.848,0.564-1.282,0.746c0.028-0.659,0.154-1.258,0.378-1.797c0.224-0.539,0.455-1.104,0.694-1.692
		c0.084-0.21,0.105-0.382,0.063-0.515c-0.042-0.133-0.123-0.245-0.242-0.336c-0.119-0.091-0.263-0.168-0.431-0.231
		s-0.33-0.129-0.483-0.2c-0.294,0.365-0.673,0.806-1.135,1.325c-0.463,0.519-0.967,1.034-1.514,1.545
		c-0.547,0.512-1.114,0.978-1.703,1.398c-0.589,0.421-1.156,0.715-1.703,0.883c0.042-0.476,0.154-0.988,0.336-1.535
		c0.182-0.547,0.406-1.093,0.673-1.64c0.266-0.547,0.557-1.072,0.872-1.577c0.315-0.505,0.62-0.953,0.915-1.346
		c0.07-0.112,0.129-0.221,0.179-0.326c0.049-0.105,0.038-0.228-0.032-0.368c-0.224-0.364-0.522-0.574-0.893-0.631
		c-0.372-0.056-0.719,0.063-1.041,0.357c-0.224,0.224-0.469,0.526-0.736,0.904c-0.266,0.379-0.522,0.792-0.767,1.241
		c-0.111,0.203-0.215,0.412-0.316,0.625l-0.01-0.015c-0.533,0.491-1.051,1.016-1.556,1.577c-0.505,0.561-1.016,1.118-1.535,1.671
		c-0.519,0.554-1.051,1.083-1.598,1.587c-0.547,0.505-1.121,0.946-1.724,1.325c0.14-1.037,0.368-2.057,0.683-3.059
		c0.315-1.002,0.694-1.983,1.135-2.943c0.442-0.96,0.928-1.903,1.461-2.828c0.532-0.925,1.079-1.836,1.64-2.733
		c0.098-0.14,0.206-0.231,0.326-0.273c0.119-0.042,0.263-0.077,0.431-0.105c0.547-0.042,1.163-0.105,1.85-0.189
		c0.687-0.084,1.405-0.165,2.155-0.242c0.75-0.077,1.517-0.147,2.302-0.21c0.784-0.063,1.552-0.091,2.302-0.084
		c0.75,0.007,1.464,0.052,2.144,0.136c0.68,0.084,1.293,0.231,1.84,0.442c0.182,0.042,0.276,0.021,0.284-0.063
		c0.007-0.084-0.039-0.189-0.137-0.315c-0.182-0.196-0.378-0.361-0.589-0.494c-0.21-0.133-0.449-0.249-0.715-0.347
		c-0.462-0.168-1.09-0.294-1.881-0.378c-0.792-0.084-1.679-0.129-2.66-0.137c-0.981-0.007-2.022,0.025-3.122,0.095
		c-1.1,0.07-2.176,0.168-3.227,0.294l1.892-2.586c0.084,0.07,0.168,0.13,0.252,0.179c0.084,0.049,0.182,0.102,0.294,0.158
		c0.014-0.07,0.056-0.206,0.126-0.41c0.07-0.203,0.144-0.413,0.221-0.631c0.077-0.217,0.143-0.413,0.2-0.589
		c0.056-0.175,0.077-0.27,0.063-0.284c-0.113-0.154-0.235-0.305-0.368-0.452c-0.133-0.147-0.277-0.277-0.431-0.389
		c-0.155-0.098-0.294-0.112-0.42-0.042c-0.126,0.07-0.252,0.154-0.379,0.252c-0.407,0.351-0.796,0.729-1.167,1.135
		c-0.372,0.407-0.743,0.83-1.114,1.272c-0.371,0.442-0.739,0.894-1.104,1.356c-0.364,0.463-0.743,0.925-1.135,1.388
		c-0.42,0-0.865-0.003-1.335-0.011c-0.47-0.007-0.918-0.031-1.345-0.074c-0.428-0.042-0.803-0.105-1.125-0.189
		c-0.322-0.084-0.539-0.203-0.652-0.358c-0.126,0-0.249,0.035-0.368,0.105c-0.119,0.07-0.21,0.161-0.273,0.273
		c-0.063,0.112-0.091,0.238-0.084,0.378c0.007,0.14,0.088,0.281,0.242,0.421c0.28,0.281,0.582,0.48,0.904,0.599
		c0.322,0.119,0.658,0.2,1.009,0.242c0.35,0.042,0.711,0.06,1.083,0.053c0.371-0.007,0.746-0.011,1.125-0.011
		c-0.112,0.168-0.203,0.312-0.273,0.431c-0.07,0.119-0.147,0.235-0.231,0.347c-0.673,1.107-1.304,2.228-1.892,3.364
		c-0.288,0.556-0.55,1.125-0.788,1.708l-2.975,2.076c-0.224-0.728-0.35-1.398-0.378-2.008c-0.028-0.61,0.049-1.139,0.231-1.587
		c0.182-0.448,0.473-0.802,0.872-1.062c0.399-0.259,0.914-0.403,1.545-0.431c0.042,0,0.091,0,0.147,0
		c0.056,0,0.105-0.014,0.147-0.042c-0.113-0.21-0.252-0.399-0.42-0.567c-0.168-0.168-0.354-0.308-0.557-0.421
		c-0.203-0.112-0.42-0.189-0.652-0.231c-0.231-0.042-0.459-0.042-0.683,0c-0.462,0.098-0.88,0.284-1.251,0.557
		c-0.371,0.273-0.68,0.599-0.925,0.978c-0.245,0.378-0.41,0.792-0.494,1.24c-0.084,0.449-0.07,0.904,0.042,1.367
		c0.025,0.123,0.059,0.25,0.1,0.379c-0.199,0.238-0.4,0.478-0.604,0.725c-0.308,0.372-0.624,0.725-0.946,1.062
		c-0.322,0.336-0.655,0.638-0.998,0.904c-0.344,0.266-0.697,0.477-1.062,0.631c0.084-0.392,0.217-0.785,0.4-1.177
		c0.182-0.392,0.378-0.785,0.589-1.177c0.21-0.392,0.413-0.785,0.61-1.177c0.196-0.392,0.357-0.785,0.483-1.177
		c0.056-0.168,0.035-0.336-0.063-0.504c-0.252-0.322-0.568-0.497-0.946-0.526c-0.378-0.028-0.694,0.098-0.946,0.378
		c-0.21,0.252-0.442,0.589-0.694,1.009c-0.252,0.42-0.487,0.862-0.704,1.324c-0.217,0.463-0.389,0.929-0.515,1.398
		c-0.126,0.47-0.161,0.886-0.105,1.251c0.028,0.168,0.07,0.333,0.126,0.494c0.056,0.161,0.133,0.298,0.231,0.41
		c0.168,0.196,0.361,0.35,0.578,0.462c0.217,0.112,0.434,0.186,0.651,0.221c0.217,0.035,0.434,0.025,0.652-0.032
		c0.217-0.056,0.41-0.161,0.578-0.315c0.154-0.14,0.368-0.347,0.641-0.62c0.273-0.273,0.575-0.589,0.904-0.946
		c0.329-0.357,0.669-0.743,1.02-1.156c0.15-0.176,0.295-0.352,0.44-0.527c0.054,0.15,0.113,0.314,0.18,0.496
		c0.119,0.323,0.263,0.722,0.431,1.198c-0.561,0.378-1.079,0.722-1.556,1.03c-0.476,0.308-0.914,0.61-1.314,0.904
		c-0.4,0.294-0.76,0.603-1.083,0.925c-0.322,0.323-0.602,0.687-0.841,1.093c-0.126,0.21-0.231,0.42-0.315,0.631
		c-0.084,0.21-0.144,0.421-0.179,0.631c-0.035,0.21-0.039,0.41-0.011,0.599c0.028,0.189,0.105,0.361,0.231,0.515
		c0.393,0.379,0.813,0.648,1.261,0.809c0.449,0.161,0.946,0.165,1.493,0.011c1.387-0.407,2.515-1.149,3.385-2.228
		c0.35-0.477,0.602-0.908,0.757-1.293c0.154-0.385,0.242-0.77,0.263-1.156c0.021-0.385-0.011-0.788-0.095-1.209
		c-0.084-0.42-0.189-0.897-0.315-1.429c0.532-0.406,1.069-0.778,1.608-1.114c0.2-0.125,0.395-0.26,0.588-0.4
		c-0.076,0.223-0.152,0.446-0.221,0.673c-0.154,0.477-0.276,0.96-0.368,1.45c-0.091,0.491-0.123,0.995-0.095,1.514
		c0.014,0.365,0.102,0.68,0.263,0.946c0.161,0.266,0.424,0.477,0.788,0.631c0.084,0.056,0.168,0.101,0.252,0.137
		c0.084,0.035,0.161,0.073,0.231,0.116c0.294,0.182,0.55,0.224,0.767,0.126c0.217-0.098,0.459-0.245,0.725-0.441
		c0.981-0.883,1.934-1.819,2.859-2.807c0.587-0.627,1.196-1.299,1.822-2.008c-0.029,0.124-0.055,0.246-0.077,0.368
		c-0.084,0.47-0.098,0.908-0.042,1.314c0.056,0.407,0.21,0.75,0.462,1.03c0.07,0.084,0.158,0.151,0.263,0.2
		c0.105,0.049,0.2,0.109,0.284,0.178c0.532,0.365,1.093,0.421,1.682,0.168c0.35-0.168,0.708-0.382,1.072-0.641
		c0.364-0.259,0.722-0.536,1.072-0.83c0.35-0.294,0.686-0.596,1.009-0.904c0.322-0.308,0.623-0.603,0.904-0.883
		c-0.084,0.449-0.14,0.813-0.168,1.093c-0.028,0.281-0.007,0.515,0.063,0.704c0.07,0.189,0.189,0.358,0.357,0.505
		c0.168,0.147,0.413,0.305,0.736,0.473c0.28,0.154,0.536,0.193,0.767,0.116c0.231-0.077,0.466-0.2,0.704-0.368
		c0.252-0.182,0.529-0.42,0.83-0.715c0.174-0.17,0.344-0.348,0.511-0.53c-0.043,0.17-0.084,0.34-0.123,0.509
		c-0.07,0.28-0.07,0.533,0,0.757c0.07,0.224,0.182,0.421,0.336,0.589c0.154,0.168,0.333,0.305,0.536,0.41
		c0.203,0.105,0.403,0.165,0.599,0.179c0.322-0.785,0.728-1.577,1.219-2.375c0.49-0.799,1.047-1.552,1.671-2.26
		c0.624-0.708,1.303-1.346,2.039-1.913c0.736-0.567,1.517-1.02,2.344-1.356c-0.112,0.365-0.252,0.715-0.42,1.051
		c-0.168,0.336-0.35,0.673-0.547,1.009c-0.196,0.336-0.393,0.676-0.589,1.02c-0.196,0.344-0.371,0.705-0.525,1.083
		c-0.112,0.238-0.151,0.466-0.116,0.683c0.035,0.217,0.116,0.399,0.242,0.547c0.126,0.147,0.298,0.256,0.515,0.326
		c0.217,0.07,0.452,0.084,0.704,0.042c0.238-0.042,0.505-0.147,0.799-0.315c0.294-0.168,0.606-0.371,0.936-0.61
		c0.259-0.187,0.518-0.394,0.777-0.612c-0.003,0.011-0.007,0.023-0.01,0.034c-0.28,0.96-0.518,1.853-0.715,2.68
		c-0.028,0.112-0.066,0.294-0.116,0.547c-0.049,0.252-0.084,0.515-0.105,0.788c-0.021,0.273-0.014,0.529,0.021,0.767
		c0.035,0.238,0.123,0.399,0.263,0.484c0.168,0.098,0.347,0.175,0.536,0.231c0.189,0.056,0.389,0.119,0.599,0.189l0.462-2.018
		c0.785-0.196,1.552-0.48,2.302-0.851c0.75-0.371,1.485-0.785,2.207-1.24c0.722-0.455,1.433-0.925,2.134-1.408
		c0.398-0.275,0.793-0.538,1.187-0.792c-0.129,0.319-0.239,0.639-0.325,0.96c-0.126,0.47-0.161,0.886-0.105,1.251
		c0.028,0.168,0.07,0.333,0.126,0.494c0.056,0.161,0.133,0.298,0.231,0.41c0.168,0.196,0.361,0.35,0.578,0.462
		c0.217,0.112,0.434,0.186,0.651,0.221c0.217,0.035,0.434,0.025,0.652-0.032c0.217-0.056,0.41-0.161,0.578-0.315
		c0.154-0.14,0.368-0.347,0.641-0.62c0.273-0.273,0.575-0.589,0.904-0.946c0.219-0.238,0.443-0.489,0.672-0.751
		c-0.038,0.427,0.007,0.787,0.138,1.077c0.197,0.435,0.624,0.855,1.282,1.261c0.476,0.294,0.922,0.42,1.335,0.378
		c0.413-0.042,0.823-0.217,1.23-0.526c0.855-0.673,1.521-1.493,1.997-2.46c0.028-0.042,0.053-0.087,0.073-0.136
		c0.021-0.049,0.045-0.087,0.074-0.116c0.617-0.378,1.3-0.718,2.05-1.02c0.749-0.301,1.535-0.554,2.355-0.757
		c0.82-0.203,1.653-0.347,2.502-0.431c0.848-0.084,1.675-0.098,2.481-0.042c0.806,0.056,1.569,0.186,2.291,0.389
		c0.722,0.203,1.37,0.501,1.945,0.893c0.168,0.126,0.326,0.179,0.473,0.158c0.147-0.021,0.27-0.228,0.368-0.62
		C93.213,51.275,93.132,50.753,92.915,50.395z M91.391,41.917c0,0-0.044-0.42-0.738-0.96C90.653,40.957,91.701,41.059,91.391,41.917
		z M90.823,38.552l0.372,0.18c-0.802,0.526-0.745,1.024-0.716,1.148C90.176,38.921,90.823,38.552,90.823,38.552z M27.179,57.196
		c-0.231,0.561-0.553,1.079-0.967,1.556c-0.414,0.476-0.886,0.876-1.419,1.198c-0.533,0.322-1.072,0.511-1.619,0.567
		c-0.028-0.575,0.091-1.093,0.357-1.556c0.266-0.463,0.606-0.89,1.02-1.283c0.414-0.392,0.876-0.76,1.388-1.103
		c0.512-0.343,1.012-0.676,1.503-0.999C27.497,56.096,27.41,56.636,27.179,57.196z M64.661,52.151
		c-0.287,0.477-0.624,0.911-1.009,1.303c-0.386,0.392-0.82,0.754-1.303,1.083c-0.483,0.329-1.02,0.655-1.608,0.977
		c0.112-0.673,0.298-1.272,0.557-1.797c0.259-0.526,0.585-0.988,0.977-1.388c0.392-0.399,0.848-0.746,1.366-1.041
		c0.518-0.294,1.093-0.553,1.724-0.778C65.183,51.128,64.948,51.674,64.661,52.151z M76.023,54.674
		c-0.435,0.491-0.96,0.827-1.577,1.009c0.028-0.659,0.15-1.307,0.368-1.944c0.217-0.638,0.445-1.202,0.683-1.692
		c0.126,0.308,0.294,0.564,0.505,0.767c0.21,0.203,0.595,0.312,1.156,0.326C76.836,53.672,76.458,54.183,76.023,54.674z
		 M78.388,50.259c-0.049,0.281-0.116,0.561-0.2,0.841c-0.084,0.281-0.175,0.543-0.273,0.788c-0.098,0.245-0.182,0.431-0.252,0.557
		c-0.266,0-0.483-0.014-0.652-0.042c-0.168-0.028-0.308-0.081-0.42-0.158c-0.112-0.077-0.214-0.186-0.305-0.326
		c-0.091-0.14-0.193-0.329-0.305-0.567c0.084-0.112,0.161-0.235,0.231-0.368c0.07-0.133,0.147-0.256,0.231-0.368
		c0.084-0.112,0.189-0.214,0.315-0.305c0.126-0.091,0.287-0.15,0.483-0.179c0.084-0.014,0.168-0.081,0.252-0.2
		c0.084-0.119,0.147-0.235,0.189-0.347c0.028-0.084,0.024-0.182-0.01-0.294c-0.035-0.112-0.067-0.217-0.095-0.315
		c0.266-0.07,0.466-0.049,0.599,0.063c0.133,0.113,0.214,0.273,0.242,0.484C78.448,49.733,78.437,49.979,78.388,50.259z
		 M88.587,45.732c0,0,1.029-1.886,0.932-3.098C89.616,43.282,89.642,44.601,88.587,45.732z M87.605,45.524
		c0,0,1.433-1.601,1.616-2.803C89.167,43.375,88.891,44.664,87.605,45.524z M78.111,46.002c-0.148-0.262-0.279-0.54-0.392-0.833
		c-0.166-0.433-0.278-0.869-0.343-1.302c-0.022-0.15-0.04-0.301-0.05-0.451c-0.023-0.518,0.073-1.034,0.284-1.529
		c0.35-0.786,0.998-1.439,1.88-1.778c0.471-0.181,0.961-0.245,1.441-0.21c0.319,0.023,0.634,0.089,0.936,0.197l0.029-0.101
		c0.127-0.285,0.292-0.553,0.49-0.797c0.385-0.475,0.896-0.859,1.504-1.093c0.921-0.354,1.886-0.297,2.727,0.077
		c0.541,0.241,1.022,0.618,1.39,1.102c0.482,0.558,0.787,1.218,0.982,1.812c-3.92,4.385-8.107,5.835-9.811,6.267
		C78.764,46.971,78.403,46.519,78.111,46.002z M83.541,46.61c0,0-1.767,1.835-3.612,1.386C79.928,47.997,81.295,47.825,83.541,46.61
		z M80.496,48.293c0,0,1.267,0.411,2.863-0.554C83.358,47.739,82.225,49.253,80.496,48.293z"/>
	<path fill="#FFFFFF" d="M93.811,50.096c0.798,2.277-0.71,3.489-0.71,3.489c0.794-0.424,2.465-0.618,2.465-0.618
		S93.432,49.013,93.811,50.096z"/>
	<path fill="#FFFFFF" d="M86.368,40.578L83.704,41.6l0.294,0.766c0.089,0.231,0.325,0.378,0.616,0.433
		c0.311,0.048,0.662,0.025,1.034-0.118c0.372-0.143,0.668-0.368,0.846-0.604c0.199-0.244,0.261-0.491,0.168-0.734L86.368,40.578z"/>
	<path fill="#FFFFFF" d="M81.886,42.298l-2.664,1.022l0.294,0.766c0.089,0.231,0.325,0.378,0.616,0.434
		c0.311,0.048,0.662,0.025,1.034-0.118c0.372-0.143,0.668-0.368,0.846-0.604c0.199-0.244,0.261-0.491,0.168-0.734L81.886,42.298z"/>
</g>
</svg>
