<?xml version="1.0" encoding="utf-8"?>
<!-- Generator: Adobe Illustrator 17.0.0, SVG Export Plug-In . SVG Version: 6.00 Build 0)  -->
<!DOCTYPE svg PUBLIC "-//W3C//DTD SVG 1.1//EN" "http://www.w3.org/Graphics/SVG/1.1/DTD/svg11.dtd">
<svg version="1.1" id="Layer_1" xmlns="http://www.w3.org/2000/svg" xmlns:xlink="http://www.w3.org/1999/xlink" x="0px" y="0px"
	 width="100px" height="100px" viewBox="0 0 100 100" enable-background="new 0 0 100 100" xml:space="preserve">
<path opacity="0.96" fill="#FFFFFF" d="M82.282,52.693c-0.025-2.73-0.376-5.381-1.021-7.915c-1.282-5.072-3.724-9.684-7.029-13.533
	c-0.879-1.027-1.822-2-2.822-2.912c-0.769-0.706-1.573-1.374-2.405-2.004c-0.008-0.006-0.016-0.012-0.025-0.018
	c0.002-0.002,0.004-0.004,0.006-0.008c0.517-0.702,0.822-1.569,0.822-2.505c0-2.334-1.892-4.227-4.227-4.227
	c-0.704,0-1.366,0.172-1.949,0.477c-0.861,0.448-1.548,1.186-1.935,2.084c-0.092,0.217-0.168,0.442-0.223,0.675
	c-0.984-0.667-2.004-1.284-3.06-1.847c-4.681-2.495-10.028-3.91-15.705-3.91c-4.36,0-8.526,0.834-12.345,2.352
	c-1.311,0.522-2.583,1.125-3.806,1.802c-4.252,2.773-7.062,7.571-7.062,13.026c0,0.818,0.063,1.622,0.186,2.407
	c1.158,7.44,7.592,13.136,15.357,13.136c2.751,0,5.334-0.716,7.575-1.97c0.775-0.432,1.507-0.929,2.192-1.485
	c0.517-0.567,1.08-1.096,1.681-1.577c1.479-1.19,3.188-2.102,5.052-2.659c1.36-0.409,2.8-0.628,4.293-0.628c0.022,0,0.043,0,0.065,0
	c1.078,0.004,2.129,0.125,3.141,0.346c-1.636,0.436-2.884,1.828-3.103,3.542c-0.025,0.178-0.037,0.36-0.037,0.544
	c0,0.323,0.037,0.638,0.106,0.939c0.123,0.55,0.354,1.057,0.669,1.501c0.767,1.082,2.027,1.788,3.452,1.788
	c0.501,0,0.98-0.086,1.426-0.245c1.632-0.587,2.8-2.147,2.8-3.982c0-0.785-0.215-1.522-0.589-2.152
	c4.039,2.538,6.78,6.958,6.986,12.03c-0.059,0.822-0.184,1.628-0.37,2.409c0.09,0.002,0.182,0.004,0.274,0.004
	c0.022,0,0.043,0,0.065,0c0.039,0,0.078,0,0.117-0.002c-0.063,0.02-0.125,0.041-0.188,0.057c-0.1,0.033-0.202,0.061-0.305,0.088
	c-0.71,2.859-2.246,5.393-4.34,7.332c-1.106,1.027-2.368,1.886-3.747,2.54c-1.779,0.847-3.753,1.35-5.835,1.428
	c-0.014,0-0.029,0-0.045,0.002c-0.967,0.053-1.771,0.72-2.031,1.618c-0.059,0.198-0.09,0.409-0.09,0.628
	c0,1.243,1.006,2.25,2.25,2.25c0.346,0,0.671-0.078,0.963-0.217c0.004-0.002,0.008-0.002,0.012-0.004
	c0.082-0.047,0.164-0.092,0.243-0.139c0.002,0,0.006-0.002,0.008-0.004c0.939-0.54,1.847-1.123,2.726-1.749
	c1.55-1.102,3.002-2.336,4.338-3.681c0.047-0.045,0.092-0.092,0.137-0.137c1.732-1.761,3.27-3.714,4.581-5.823
	c-1.019,2.332-2.616,4.35-4.61,5.878c-1.475,2.722-3.769,4.935-6.555,6.303c-1.659,0.818-3.491,1.336-5.428,1.485
	c-0.382,0.029-0.767,0.043-1.156,0.043c-3.608,0-6.915-1.278-9.496-3.407c0,0,0,0-0.002-0.002c-0.176-0.147-0.352-0.297-0.522-0.452
	c-0.346-0.219-0.755-0.344-1.194-0.344c-1.243,0-2.25,1.008-2.25,2.25c0,0.601,0.235,1.149,0.622,1.552
	c0.219,0.17,0.444,0.331,0.673,0.485c1.227,0.836,2.585,1.493,4.035,1.933c-0.841,0.063-1.687,0.096-2.544,0.096
	c-4.409,0-8.619-0.853-12.472-2.403l-0.006,0.012c-0.268-0.113-0.564-0.176-0.875-0.176c-0.963,0-1.785,0.607-2.107,1.458
	c-0.092,0.245-0.143,0.513-0.143,0.791c0,0.769,0.387,1.448,0.974,1.851c0.133,0.076,0.266,0.149,0.401,0.223
	c0.002,0,0.004,0,0.006,0.002c1.98,1.068,4.078,1.941,6.273,2.595c3.031,0.904,6.244,1.389,9.57,1.389
	c5.217,0,10.156-1.194,14.556-3.326l0.039,0.078c-0.755,0.364-1.274,1.137-1.274,2.029c0,1.243,1.006,2.25,2.25,2.25
	c0.233,0,0.456-0.035,0.669-0.1l0.01,0.033c13.525-4.285,23.326-16.938,23.326-31.881C82.285,52.904,82.285,52.797,82.282,52.693z"
	/>
</svg>
