<?xml version="1.0" encoding="utf-8"?>
<!-- Generator: Adobe Illustrator 17.0.0, SVG Export Plug-In . SVG Version: 6.00 Build 0)  -->
<!DOCTYPE svg PUBLIC "-//W3C//DTD SVG 1.1//EN" "http://www.w3.org/Graphics/SVG/1.1/DTD/svg11.dtd">
<svg version="1.1" id="Layer_1" xmlns="http://www.w3.org/2000/svg" xmlns:xlink="http://www.w3.org/1999/xlink" x="0px" y="0px"
	 width="100px" height="100px" viewBox="0 0 100 100" enable-background="new 0 0 100 100" xml:space="preserve">
<g>
	<path fill="#FFFFFF" d="M3.384,31.619h2.771l2.241,4.277l2.201-4.277h2.811v9.699h-1.996v-6.861h-0.027l-2.159,4.415H7.581
		l-2.146-4.347H5.407v6.793H3.384V31.619z"/>
	<path fill="#FFFFFF" d="M19.796,41.441c-2.771,0-5.012-2.241-5.012-5.015c0-2.783,2.241-5.024,5.012-5.024
		c2.758,0,5.027,2.241,5.027,5.024C24.823,39.199,22.555,41.441,19.796,41.441z M16.836,36.426c0,1.619,1.344,2.963,2.961,2.963
		c1.617,0,2.936-1.344,2.936-2.963c0-1.617-1.319-2.973-2.936-2.973C18.18,33.453,16.836,34.809,16.836,36.426z"/>
	<path fill="#FFFFFF" d="M27.732,34.62v6.711H25.87v-9.739h2.446l4.332,6.059v-6.059h1.809v9.739h-1.809L27.732,34.62z"/>
	<path fill="#FFFFFF" d="M44.674,41.318h-2.933L39.212,38.6l-1.262,1.754v0.964h-2.174v-9.714h2.174v5.502l3.79-5.502h2.648
		l-3.653,5.502L44.674,41.318z"/>
	<path fill="#FFFFFF" d="M47.762,39.512h5.474v1.794h-7.54v-9.729h7.078v1.794h-5.012v2.186h4.427v1.889h-4.427V39.512z"/>
	<path fill="#FFFFFF" d="M57.287,37.54l-3.573-5.921h2.404l2.271,3.83l2.254-3.83h2.379l-3.6,5.976v3.723h-2.134V37.54z"/>
	<path fill="#FFFFFF" d="M72.3,41.441c-2.771,0-5.012-2.241-5.012-5.015c0-2.783,2.241-5.024,5.012-5.024
		c2.758,0,5.027,2.241,5.027,5.024C77.327,39.199,75.058,41.441,72.3,41.441z M69.339,36.426c0,1.619,1.344,2.963,2.961,2.963
		c1.617,0,2.936-1.344,2.936-2.963c0-1.617-1.319-2.973-2.936-2.973C70.684,33.453,69.339,34.809,69.339,36.426z"/>
	<path fill="#FFFFFF" d="M80.225,34.62v6.711h-1.861v-9.739h2.446l4.332,6.059v-6.059h1.809v9.739h-1.809L80.225,34.62z"/>
	<path fill="#FFFFFF" d="M90.444,39.512h5.474v1.794h-7.54v-9.729h7.078v1.794h-5.012v2.186h4.427v1.889h-4.427V39.512z"/>
	<g>
		<path fill="#FFFFFF" d="M17.832,67.777c-0.119,0-0.211-0.151-0.27-0.451c-0.326-1.473-0.519-2.926-0.579-4.36
			c0.013-0.398,0.049-0.887,0.109-1.466c0.023-0.336,0.036-0.602,0.036-0.796c-0.085,0.049-0.151,0.072-0.198,0.072
			c-0.072-0.011-0.14-0.066-0.2-0.162c-0.168-0.204-0.368-0.319-0.596-0.345c-0.145-0.011-0.315-0.017-0.506-0.017
			c-0.641,0-1.526,0.072-2.66,0.217c-0.109,0.013-0.187,0.051-0.234,0.117c-0.049,0.066-0.213,0.445-0.489,1.13
			c-0.023,0.049-0.036,0.092-0.036,0.128c0,0.096,0.072,0.166,0.217,0.209s0.217,0.094,0.217,0.153c0,0.109-0.223,0.332-0.67,0.668
			c-0.155,0.121-0.366,0.296-0.632,0.526c-0.845,0.772-1.387,1.158-1.628,1.158c-0.072,0-0.121-0.036-0.145-0.109
			c-0.302-0.964-0.462-1.73-0.479-2.298c-0.019-0.566-0.113-0.855-0.281-0.868c-0.168-0.011-0.253-0.034-0.253-0.072v-0.234
			c0.023-0.362,0.036-0.668,0.036-0.924c0-0.396-0.03-0.8-0.092-1.211c-0.023-0.145-0.034-0.266-0.034-0.362
			c0-0.168,0.06-0.283,0.179-0.343l1.43-0.289c3.822-6.84,6.897-10.885,9.225-12.138c0.121-0.072,0.24-0.109,0.362-0.109
			c0.194,0,0.658,0.204,1.394,0.615l1.23,0.668c0.53,0.243,0.796,0.689,0.796,1.341c0,0.638-0.213,1.632-0.634,2.984
			c-1.026,3.305-1.826,7.41-2.405,12.317l-0.019,0.526c0,0.375,0.036,0.766,0.109,1.177c0.023,0.155,0.036,0.294,0.036,0.415
			c0,0.194-0.053,0.332-0.164,0.415c-0.724,0.506-1.241,0.93-1.553,1.268C18.171,67.626,17.966,67.777,17.832,67.777z
			 M17.364,57.665c0.106,0,0.2-0.132,0.279-0.396c0.079-0.266,0.202-0.779,0.372-1.539c0.204-1.062,0.609-2.822,1.211-5.282
			c0-0.036-0.006-0.064-0.019-0.081c-0.011-0.019-0.017-0.034-0.017-0.045c-1.822,2.085-3.43,4.365-4.831,6.835l1.032-0.053
			c0.675,0,1.211,0.132,1.611,0.398C17.147,57.611,17.266,57.665,17.364,57.665z"/>
		<path fill="#FFFFFF" d="M25.429,66.964c-0.047,0-0.102-0.013-0.162-0.038c-0.506-0.336-1.247-0.717-2.226-1.139
			c-0.06-0.013-0.089-0.085-0.089-0.217c0-0.53,0.385-1.881,1.158-4.052s1.541-4.094,2.307-5.769
			c0.766-1.677,1.407-2.966,1.926-3.873c0.023-0.047,0.049-0.113,0.072-0.198c-0.313,0.013-1.339,0.194-3.075,0.543l-1.068,0.181
			c-0.106,0-0.217-0.036-0.323-0.109c-0.194-0.132-0.694-0.645-1.502-1.536c-0.47-0.496-0.707-0.766-0.707-0.815
			c0-0.072,0.115-0.132,0.345-0.181c0.23-0.049,0.572-0.162,1.03-0.345c1.328-0.541,4.162-1.145,8.504-1.809
			c2.145-0.336,3.72-0.506,4.72-0.506c0.615,0,0.958,0.079,1.03,0.236c-0.047,0.411-0.132,1.032-0.251,1.862
			c-0.206,1.302-0.502,1.966-0.887,1.992c-0.132,0-0.27-0.085-0.415-0.255c-0.085-0.106-0.23-0.162-0.434-0.162
			c-0.23,0-0.555,0.023-0.979,0.072c-0.106,0.023-0.496,0.072-1.166,0.145c-0.668,0.072-1.03,0.136-1.085,0.189
			c-0.053,0.055-0.081,0.13-0.081,0.228c-0.036,0.228-0.145,0.506-0.326,0.83c-2.292,3.992-4.105,8.274-5.446,12.845
			c-0.192,0.613-0.349,1.081-0.468,1.4C25.708,66.803,25.574,66.964,25.429,66.964z"/>
		<path fill="#FFFFFF" d="M41.673,67.777c-0.119,0-0.211-0.151-0.27-0.451c-0.326-1.473-0.519-2.926-0.579-4.36
			c0.013-0.398,0.049-0.887,0.109-1.466c0.023-0.336,0.036-0.602,0.036-0.796c-0.085,0.049-0.151,0.072-0.198,0.072
			c-0.072-0.011-0.14-0.066-0.2-0.162c-0.168-0.204-0.368-0.319-0.596-0.345c-0.145-0.011-0.315-0.017-0.506-0.017
			c-0.641,0-1.526,0.072-2.66,0.217c-0.109,0.013-0.187,0.051-0.234,0.117c-0.049,0.066-0.213,0.445-0.489,1.13
			c-0.023,0.049-0.036,0.092-0.036,0.128c0,0.096,0.072,0.166,0.217,0.209s0.217,0.094,0.217,0.153c0,0.109-0.223,0.332-0.67,0.668
			c-0.155,0.121-0.366,0.296-0.632,0.526c-0.845,0.772-1.387,1.158-1.628,1.158c-0.072,0-0.121-0.036-0.145-0.109
			c-0.302-0.964-0.462-1.73-0.479-2.298c-0.019-0.566-0.113-0.855-0.281-0.868c-0.168-0.011-0.253-0.034-0.253-0.072v-0.234
			c0.023-0.362,0.036-0.668,0.036-0.924c0-0.396-0.03-0.8-0.092-1.211c-0.023-0.145-0.034-0.266-0.034-0.362
			c0-0.168,0.06-0.283,0.179-0.343l1.43-0.289c3.822-6.84,6.897-10.885,9.225-12.138c0.121-0.072,0.24-0.109,0.362-0.109
			c0.194,0,0.658,0.204,1.394,0.615l1.23,0.668c0.53,0.243,0.796,0.689,0.796,1.341c0,0.638-0.213,1.632-0.634,2.984
			c-1.026,3.305-1.826,7.41-2.405,12.317l-0.019,0.526c0,0.375,0.036,0.766,0.109,1.177c0.023,0.155,0.036,0.294,0.036,0.415
			c0,0.194-0.053,0.332-0.164,0.415c-0.724,0.506-1.241,0.93-1.553,1.268C42.011,67.626,41.807,67.777,41.673,67.777z
			 M41.205,57.665c0.106,0,0.2-0.132,0.279-0.396c0.079-0.266,0.202-0.779,0.372-1.539c0.204-1.062,0.609-2.822,1.211-5.282
			c0-0.036-0.006-0.064-0.019-0.081c-0.011-0.019-0.017-0.034-0.017-0.045c-1.822,2.085-3.43,4.365-4.831,6.835l1.032-0.053
			c0.675,0,1.211,0.132,1.611,0.398C40.988,57.611,41.107,57.665,41.205,57.665z"/>
		<path fill="#FFFFFF" d="M55.131,67.777c-0.119,0-0.211-0.151-0.27-0.451c-0.326-1.473-0.519-2.926-0.579-4.36
			c0.013-0.398,0.049-0.887,0.109-1.466c0.023-0.336,0.036-0.602,0.036-0.796c-0.085,0.049-0.151,0.072-0.198,0.072
			c-0.072-0.011-0.14-0.066-0.2-0.162c-0.168-0.204-0.368-0.319-0.596-0.345c-0.145-0.011-0.315-0.017-0.506-0.017
			c-0.641,0-1.526,0.072-2.66,0.217c-0.109,0.013-0.187,0.051-0.234,0.117c-0.049,0.066-0.213,0.445-0.489,1.13
			c-0.023,0.049-0.036,0.092-0.036,0.128c0,0.096,0.072,0.166,0.217,0.209s0.217,0.094,0.217,0.153c0,0.109-0.223,0.332-0.67,0.668
			c-0.155,0.121-0.366,0.296-0.632,0.526c-0.845,0.772-1.387,1.158-1.628,1.158c-0.072,0-0.121-0.036-0.145-0.109
			c-0.302-0.964-0.462-1.73-0.479-2.298c-0.019-0.566-0.113-0.855-0.281-0.868c-0.168-0.011-0.253-0.034-0.253-0.072v-0.234
			c0.023-0.362,0.036-0.668,0.036-0.924c0-0.396-0.03-0.8-0.092-1.211c-0.023-0.145-0.034-0.266-0.034-0.362
			c0-0.168,0.06-0.283,0.179-0.343l1.43-0.289c3.822-6.84,6.897-10.885,9.225-12.138c0.121-0.072,0.24-0.109,0.362-0.109
			c0.194,0,0.658,0.204,1.394,0.615l1.23,0.668c0.53,0.243,0.796,0.689,0.796,1.341c0,0.638-0.213,1.632-0.634,2.984
			c-1.026,3.305-1.826,7.41-2.405,12.317l-0.019,0.526c0,0.375,0.036,0.766,0.109,1.177c0.023,0.155,0.036,0.294,0.036,0.415
			c0,0.194-0.053,0.332-0.164,0.415c-0.724,0.506-1.241,0.93-1.553,1.268C55.469,67.626,55.265,67.777,55.131,67.777z
			 M54.662,57.665c0.106,0,0.2-0.132,0.279-0.396c0.079-0.266,0.202-0.779,0.372-1.539c0.204-1.062,0.609-2.822,1.211-5.282
			c0-0.036-0.006-0.064-0.019-0.081c-0.011-0.019-0.017-0.034-0.017-0.045c-1.822,2.085-3.43,4.365-4.831,6.835l1.032-0.053
			c0.675,0,1.211,0.132,1.611,0.398C54.445,57.611,54.564,57.665,54.662,57.665z"/>
		<path fill="#FFFFFF" d="M64.954,66.619c-0.349,0-0.675-0.066-0.977-0.2c-0.362-0.155-0.862-0.402-1.5-0.741
			c-1.641-0.845-2.46-2.183-2.46-4.016c0-1.411,0.417-2.932,1.256-4.567c0.838-1.634,1.875-3.175,3.111-4.622
			c1.236-1.447,2.503-2.639,3.799-3.573c1.296-0.934,2.403-1.4,3.32-1.4c0.664,0,1.056,0.27,1.177,0.813
			c0.072,0.362,0.106,0.832,0.106,1.411c0,0.458,0.013,0.898,0.038,1.322l0.017,0.941c0,0.517-0.064,1.047-0.189,1.592
			c-0.128,0.541-0.426,1.079-0.896,1.609c-0.013,0.013-0.043,0.017-0.089,0.017c-0.328,0-1.026-0.306-2.098-0.921
			c-0.664-0.362-0.996-0.602-0.996-0.724c0-0.109,0.085-0.253,0.253-0.434c0.253-0.277,0.447-0.664,0.579-1.158
			c-0.868,0.736-1.758,1.8-2.669,3.192c-0.911,1.394-1.688,2.786-2.332,4.179c-0.645,1.392-0.968,2.403-0.968,3.028
			c0,0.17,0.03,0.296,0.089,0.381c0.315,0.447,0.621,0.67,0.924,0.67c0.109,0,0.211-0.043,0.306-0.128
			c2.088-1.773,3.328-3.062,3.728-3.871c0.06-0.132,0.132-0.247,0.217-0.343c0.119-0.157,0.572-0.417,1.356-0.779
			c1.085-0.506,1.717-0.79,1.9-0.851c0.06,0,0.089,0.049,0.089,0.145l-0.017,1.013c0,0.7,0.034,1.153,0.106,1.358
			c0.026,0.145,0.038,0.266,0.038,0.362c0,0.194-0.128,0.447-0.381,0.76c-1.326,1.579-2.46,2.798-3.401,3.654
			C67.003,65.992,65.858,66.619,64.954,66.619z"/>
		<path fill="#FFFFFF" d="M73.472,66.964c-0.072,0-0.555-0.447-1.447-1.341c-0.506-0.506-0.76-0.819-0.76-0.941
			c0-0.072,0.194-0.675,0.579-1.809c0-0.119-0.309-0.217-0.921-0.289c-0.072,0-0.14,0.013-0.2,0.038
			c-0.06,0.023-0.128,0.034-0.2,0.034c-0.349,0-0.662-0.77-0.941-2.315c-0.023-0.096-0.089-0.164-0.198-0.206
			c-0.109-0.043-0.164-0.094-0.164-0.155c0-0.011,0.011-0.019,0.028-0.026c0.019-0.006,0.04-0.021,0.064-0.047
			c0.023-0.023,0.053-0.06,0.092-0.106c0.034-0.049,0.053-0.111,0.053-0.183l-0.019-0.126c-0.034-0.121-0.053-0.217-0.053-0.289
			c0-0.109,0.036-0.164,0.109-0.164c0.085,0,0.174,0.021,0.272,0.064c0.096,0.043,0.192,0.064,0.289,0.064
			c0.06,0,0.106-0.017,0.145-0.055c0.987-1.024,2.181-1.922,3.579-2.694c0.651-0.349,1.075-0.664,1.268-0.941l1.698-2.894
			c2.364-4.148,3.69-6.239,3.979-6.278c0.7-0.228,1.243-0.458,1.63-0.685c0.313-0.194,0.547-0.289,0.704-0.289
			c0.132,0,0.198,0.119,0.198,0.362c0,0.385-0.102,1.09-0.306,2.115c-0.06,0.47-0.687,1.724-1.881,3.762
			c-0.145,0.23-0.283,0.464-0.417,0.707c0.098-0.013,0.907-0.434,2.426-1.268c5.243-2.928,8.018-4.394,8.321-4.394
			c0.034,0,0.06,0.013,0.072,0.036c0.179,0.675,0.33,1.217,0.451,1.628c0.194,0.602,0.289,1.019,0.289,1.249
			c0,0.145-0.043,0.251-0.128,0.323c-0.083,0.072-0.206,0.151-0.37,0.236c-0.162,0.085-0.37,0.204-0.624,0.362L83.602,54.5
			c-4.039,2.122-6.246,3.401-6.62,3.835c-0.675,1.194-1.013,1.839-1.013,1.934c0,0.072,0.092,0.121,0.27,0.145
			c2.147,0.617,3.564,1.062,4.252,1.341c0.519,0.217,1.628,0.747,3.328,1.592c0.494,0.251,0.741,0.475,0.741,0.668
			c0,0.121-0.055,0.23-0.17,0.326s-0.304,0.24-0.57,0.434c-0.204,0.157-0.398,0.326-0.579,0.506
			c-0.651,0.724-1.115,1.085-1.392,1.085c-0.145,0-0.236-0.174-0.272-0.526c-0.023-0.192-0.074-0.351-0.153-0.479
			c-0.079-0.126-0.268-0.255-0.57-0.389c-0.53-0.192-2.532-0.741-6.005-1.645c-0.204,0.096-0.419,0.498-0.643,1.202
			c-0.223,0.707-0.358,1.209-0.406,1.511C73.713,66.656,73.604,66.964,73.472,66.964z"/>
	</g>
</g>
</svg>
