<?xml version="1.0" encoding="utf-8"?>
<!-- Generator: Adobe Illustrator 17.0.0, SVG Export Plug-In . SVG Version: 6.00 Build 0)  -->
<!DOCTYPE svg PUBLIC "-//W3C//DTD SVG 1.1//EN" "http://www.w3.org/Graphics/SVG/1.1/DTD/svg11.dtd">
<svg version="1.1" id="Layer_1" xmlns="http://www.w3.org/2000/svg" xmlns:xlink="http://www.w3.org/1999/xlink" x="0px" y="0px"
	 width="100px" height="100px" viewBox="0 0 100 100" enable-background="new 0 0 100 100" xml:space="preserve">
<g opacity="0.96">
	<path fill="#FFFFFF" d="M21.745,44.64c0,0,0.019-1.241-1.486-1.636c0,0,1.241-0.282,1.316-1.316v-4.024c0,0,0.244-2.163-2.2-2.652
		l-6.413-0.056v15.98h6.248c0,0,2.026-0.277,2.346-2.214C21.877,46.784,21.745,44.64,21.745,44.64z M18.473,47.766h-2.181
		l-0.075-3.159h2.257V47.766z M18.473,41.236h-2.181l-0.075-3.159h2.257V41.236z"/>
	<path fill="#FFFFFF" d="M68.131,63.23c0,0,0.02-1.324-1.585-1.746c0,0,1.324-0.301,1.405-1.405v-4.294c0,0,0.261-2.308-2.348-2.829
		l-6.843-0.06v17.052h6.667c0,0,2.162-0.296,2.503-2.363C68.272,65.518,68.131,63.23,68.131,63.23z M64.64,66.566h-2.328
		l-0.08-3.371h2.408V66.566z M64.64,59.598h-2.328l-0.08-3.371h2.408V59.598z"/>
	<path fill="#FFFFFF" d="M29.061,35.03h-3.761c-1.881,0.188-2.069,2.407-2.069,2.407V50.94l3.103,0.038v-5.36h2.172v5.331h3.075
		V37.4C31.204,35.181,29.061,35.03,29.061,35.03z M28.449,42.402H26.39l-0.028-4.344h2.087V42.402z"/>
	<path fill="#FFFFFF" d="M24.055,52.858h-4.009c-2.005,0.2-2.205,2.566-2.205,2.566v14.394l3.308,0.04v-5.714h2.315v5.683h3.278
		V55.384C26.34,53.018,24.055,52.858,24.055,52.858z M23.403,60.717h-2.195l-0.03-4.631h2.225V60.717z"/>
	<path fill="#FFFFFF" d="M55.046,52.858h-4.009c-2.005,0.2-2.205,2.566-2.205,2.566v14.394l3.308,0.04v-5.714h2.315v5.683h3.278
		V55.384C57.332,53.018,55.046,52.858,55.046,52.858z M54.395,60.717H52.2l-0.03-4.631h2.225V60.717z"/>
	<path fill="#FFFFFF" d="M49.333,35.03h-3.761c-1.881,0.188-2.069,2.407-2.069,2.407V50.94l3.103,0.038v-5.36h2.172v5.331h3.075
		V37.4C51.477,35.181,49.333,35.03,49.333,35.03z M48.722,42.402h-2.059l-0.028-4.344h2.087V42.402z"/>
	<polygon fill="#FFFFFF" points="33.217,34.983 33.217,38.002 38.125,38.002 33.273,47.705 33.273,50.978 41.707,50.978 
		41.707,47.818 36.827,47.818 41.792,38.312 41.792,34.983 	"/>
	<path fill="#FFFFFF" d="M59.827,45.336c2.069-0.602,2.069-2.37,2.069-2.37v-5.303c-0.226-2.257-2.407-2.746-2.407-2.746h-6.055
		l-0.075,15.985h3.31v-4.664l1.918,4.777h3.611L59.827,45.336z M58.736,42.327h-2.069c0,0.056,0-4.175,0-4.175h2.069V42.327z"/>
	<path fill="#FFFFFF" d="M90.329,52.933h-3.686c-2.257,0.263-2.52,2.746-2.52,2.746l0.113,12.036
		c0.489,1.73,2.031,2.219,2.031,2.219h4.551c2.294-0.564,2.332-2.52,2.332-2.52v-11.96C92.661,53.009,90.329,52.933,90.329,52.933z
		 M89.765,66.511h-2.181l-0.038-10.155h2.219V66.511z"/>
	<path fill="#FFFFFF" d="M13.264,64.367v2.144h-2.181l-0.038-10.155h2.219V58.5h3.385v-3.047c-0.489-2.445-2.821-2.52-2.821-2.52
		h-3.686c-2.257,0.263-2.52,2.746-2.52,2.746l0.113,12.036c0.489,1.73,2.031,2.219,2.031,2.219h4.551
		c2.294-0.564,2.332-2.52,2.332-2.52v-3.047H13.264z"/>
	<path fill="#FFFFFF" d="M79.61,64.367v2.144h-2.181l-0.038-10.155h2.219V58.5h3.385v-3.047c-0.489-2.445-2.821-2.52-2.821-2.52
		h-3.686c-2.257,0.263-2.52,2.746-2.52,2.746l0.113,12.036c0.489,1.73,2.031,2.219,2.031,2.219h4.551
		c2.294-0.564,2.332-2.52,2.332-2.52v-3.047H79.61z"/>
	<polygon fill="#FFFFFF" points="28.083,69.783 28.083,52.933 31.618,52.933 33.649,57.071 33.649,52.933 37.185,52.933 
		37.185,69.934 33.8,69.934 33.8,65.119 31.618,60.832 31.618,69.99 28.083,69.99 	"/>
	<polygon fill="#FFFFFF" points="38.294,69.783 38.294,52.933 41.83,52.933 43.861,57.071 43.861,52.933 47.396,52.933 
		47.396,69.934 44.011,69.934 44.011,65.119 41.83,60.832 41.83,69.99 38.294,69.99 	"/>
	<polygon fill="#FFFFFF" points="69.154,52.952 72.596,52.952 72.596,69.877 69.323,69.877 	"/>
	<path fill="#FFFFFF" d="M76.295,50.921h-1.467c0,0,0.489-2.802,0.527-2.971l-0.527,0.15l-0.056,0.339l-0.395,0.141v0.282
		l-0.367-0.085l-0.169,0.508l-0.649-0.056l-0.254,0.254h-0.987l-0.141,0.282l-1.016,0.113l-1.016,0.395c0,0,0.169-0.846,0.564-1.1
		l0.31-0.056l0.113-0.414l0.339-0.301l0.489-0.15l0.094-0.188c0,0,0.846-0.282,1.881-0.301c0,0-4.269-0.094-4.363-0.188
		l-0.094-0.414l-0.809-0.056l0.075-0.639l-1.166-0.038v-0.564l-0.79-0.056l-0.263-0.752c0,0-1.636-0.339-2.275-0.508
		c-0.639-0.169,0.207-0.414,0.207-0.414s3.629-0.752,5.773,0.282l0.188,0.15c0,0,0.658,0.038,0.658,0.094
		c0,0.056-0.075,0.301,0,0.339c0.075,0.038,0.47,0.075,0.47,0.075l0.339,0.301l0.583,0.113c0,0,0.282,0.207,0.376,0.244
		c0.094,0.038,1.693,0.79,2.031,1.147c0,0,0.235-0.047-0.047-0.414c0,0-1.128-1.128-1.58-1.157
		c-0.451-0.028-0.226-0.536-0.226-0.536l-1.016-0.113c0,0-0.31-0.592-0.395-0.621s-0.677-0.113-0.677-0.113s0-0.592-0.141-0.621
		c-0.141-0.028-0.451-0.197-0.451-0.197l-0.395-0.705l-0.339-0.141l-0.113-1.072l-0.649-0.423l-0.113-0.762l-0.649-0.31l0.226-0.649
		l-0.451-0.903l0.423-0.451l-1.044-2.68c0,0,0.056-0.395,0.48,0c0.423,0.395,3.329,3.018,3.639,3.667l0.169,0.79l0.733,0.028v0.874
		l0.649,0.085l-0.226,0.621c0,0,0.508-0.028,0.536,0.056s0,0.931,0.141,0.987c0.141,0.056,0.339,0.197,0.339,0.197l0.31,0.959
		l0.254,0.254c0,0,0.903,2.849,1.1,2.962c0,0,0.254,0.226,0.197-0.31c0,0-0.846-3.554-1.241-4.09l-0.339-0.621l0.197-0.339
		l-0.423-0.846c0,0,0.564-0.085,0.48-0.169s-0.649-0.818-0.649-0.818s0.451-0.282,0.423-0.367c-0.028-0.085-0.254-0.536-0.254-0.536
		l0.254-0.564l-0.282-0.959l0.508-0.339l-0.056-1.044l0.254-0.141l0.085-0.931l0.367-0.31l-0.028-0.395l0.282-0.056
		c0,0-0.028-2.454,0.733-3.244c0,0,0.114-0.019,0.137,0c0.857,0.685,0.733,3.244,0.733,3.244l0.282,0.056l-0.028,0.395l0.367,0.31
		l0.085,0.931l0.254,0.141l-0.056,1.044l0.508,0.339l-0.282,0.959l0.254,0.564c0,0-0.226,0.451-0.254,0.536
		c-0.028,0.085,0.423,0.367,0.423,0.367s-0.564,0.733-0.649,0.818s0.48,0.169,0.48,0.169l-0.423,0.846l0.197,0.339l-0.339,0.621
		c-0.395,0.536-1.241,4.09-1.241,4.09c-0.056,0.536,0.197,0.31,0.197,0.31c0.197-0.113,1.1-2.962,1.1-2.962l0.254-0.254l0.31-0.959
		c0,0,0.197-0.141,0.339-0.197c0.141-0.056,0.113-0.903,0.141-0.987c0.028-0.085,0.536-0.056,0.536-0.056l-0.226-0.621l0.649-0.085
		v-0.874l0.733-0.028l0.169-0.79c0.31-0.649,3.216-3.272,3.639-3.667c0.423-0.395,0.48,0,0.48,0l-1.044,2.68l0.423,0.451
		l-0.451,0.903l0.226,0.649l-0.649,0.31l-0.113,0.762l-0.649,0.423l-0.113,1.072l-0.339,0.141l-0.395,0.705
		c0,0-0.31,0.169-0.451,0.197c-0.141,0.028-0.141,0.621-0.141,0.621s-0.592,0.085-0.677,0.113s-0.395,0.621-0.395,0.621
		l-1.016,0.113c0,0,0.226,0.508-0.226,0.536c-0.451,0.028-1.58,1.157-1.58,1.157c-0.282,0.367-0.047,0.414-0.047,0.414
		c0.339-0.357,1.937-1.11,2.031-1.147c0.094-0.038,0.376-0.244,0.376-0.244l0.583-0.113l0.339-0.301c0,0,0.395-0.038,0.47-0.075
		c0.075-0.038,0-0.282,0-0.339c0-0.056,0.658-0.094,0.658-0.094l0.188-0.15c2.144-1.034,5.773-0.282,5.773-0.282
		s0.846,0.244,0.207,0.414c-0.639,0.169-2.275,0.508-2.275,0.508l-0.263,0.752l-0.79,0.056v0.564l-1.166,0.038l0.075,0.639
		l-0.809,0.056l-0.094,0.414c-0.094,0.094-4.363,0.188-4.363,0.188c1.034,0.019,1.881,0.301,1.881,0.301l0.094,0.188l0.489,0.15
		l0.339,0.301l0.113,0.414l0.31,0.056c0.395,0.254,0.564,1.1,0.564,1.1l-1.016-0.395l-1.016-0.113l-0.141-0.282h-0.987l-0.254-0.254
		l-0.649,0.056l-0.169-0.508l-0.367,0.085V48.58l-0.395-0.141L76.319,48.1l-0.527-0.15c0.038,0.169,0.527,2.971,0.527,2.971h-1.467"
		/>
</g>
</svg>
